/* XPM */
static const char *NjZjZGQzNjQ4YTBjNF9kb3dubG9hZA__[] = {
/* columns rows colors chars-per-pixel */
"50 50 240 2 ",
"   c #0D0D0C",
".  c #060606",
"X  c #0C150C",
"o  c #0A1908",
"O  c #15120D",
"+  c #141513",
"@  c #141B13",
"#  c #1A1B1A",
"$  c #1C1B14",
"%  c #0F1410",
"&  c #2A1C0B",
"*  c #281E12",
"=  c #0A2C0A",
"-  c #092808",
";  c #162A0C",
":  c #033A01",
">  c #0C320C",
",  c #0C3A0B",
"<  c #053404",
"1  c #1C231B",
"2  c #172716",
"3  c #183717",
"4  c #183708",
"5  c #2B230E",
"6  c #34280A",
"7  c #272619",
"8  c #352919",
"9  c #38361A",
"0  c #2D3815",
"q  c #183937",
"w  c #242523",
"e  c #2A2B28",
"r  c #322E25",
"t  c #2A3728",
"y  c #3D3D22",
"u  c #37332B",
"i  c #3B3C3B",
"p  c #363735",
"a  c #2C3838",
"s  c #462C07",
"d  c #473407",
"f  c #583407",
"g  c #482D13",
"h  c #473617",
"j  c #543617",
"k  c #542D06",
"l  c #663903",
"z  c #6B3C10",
"x  c #443B26",
"c  c #433C3B",
"v  c #503221",
"b  c #034402",
"n  c #024B02",
"m  c #0C4904",
"M  c #14440A",
"N  c #035302",
"B  c #025B01",
"V  c #0B5B04",
"C  c #0A5608",
"Z  c #175506",
"A  c #154912",
"S  c #174414",
"D  c #075314",
"F  c #1B541A",
"G  c #064E16",
"H  c #265015",
"J  c #086703",
"K  c #156805",
"L  c #087601",
"P  c #167903",
"I  c #257702",
"U  c #367801",
"Y  c #226808",
"T  c #184E27",
"R  c #264425",
"E  c #25592D",
"W  c #395637",
"Q  c #2B4A34",
"!  c #316C2A",
"~  c #4E4706",
"^  c #574609",
"/  c #475C01",
"(  c #59590B",
")  c #4A4A19",
"_  c #574916",
"`  c #565616",
"'  c #7D4E08",
"]  c #704F14",
"[  c #5A6F0A",
"{  c #6E6D0B",
"}  c #464734",
"|  c #555439",
" . c #524B2B",
".. c #6E542D",
"X. c #58652E",
"o. c #6F6C2C",
"O. c #30544C",
"+. c #36634A",
"@. c #444544",
"#. c #4C4C4C",
"$. c #484A46",
"%. c #4A5649",
"&. c #545454",
"*. c #5B5B5B",
"=. c #575C57",
"-. c #50514A",
";. c #77594F",
":. c #586558",
">. c #516A4F",
",. c #656548",
"<. c #64665C",
"1. c #6F7756",
"2. c #596868",
"3. c #4E6261",
"4. c #646464",
"5. c #6C6D6C",
"6. c #656B68",
"7. c #69766B",
"8. c #727469",
"9. c #6B7877",
"0. c #757574",
"q. c #7D7E7D",
"w. c #777A76",
"e. c #886806",
"r. c #907214",
"t. c #A7720C",
"y. c #815F3C",
"u. c #8F672A",
"i. c #A46C3A",
"p. c #AA7B39",
"a. c #906E49",
"s. c #AA7750",
"d. c #9E6171",
"f. c #C47649",
"g. c #068400",
"h. c #138501",
"j. c #158901",
"k. c #1B8A02",
"l. c #0B9600",
"z. c #1C9B00",
"x. c #1A9301",
"c. c #278802",
"v. c #2A9301",
"b. c #269900",
"n. c #329004",
"m. c #17A300",
"M. c #28A501",
"N. c #35AD00",
"B. c #3DA701",
"V. c #2AB700",
"C. c #33B400",
"Z. c #3ABE00",
"A. c #4A9A00",
"S. c #418E00",
"D. c #43A900",
"F. c #47A600",
"G. c #4AB800",
"H. c #53BC01",
"J. c #57AC01",
"K. c #6DB500",
"L. c #7F800B",
"P. c #33C500",
"I. c #4CCB00",
"U. c #47C700",
"Y. c #5CC400",
"T. c #54CB00",
"R. c #5CCB01",
"E. c #54C501",
"W. c #64CC00",
"Q. c #65C900",
"!. c #6A8379",
"~. c #798478",
"^. c #99940D",
"/. c #A28B06",
"(. c #B69907",
"). c #AD9007",
"_. c #AEAC03",
"`. c #A3A209",
"'. c #A9A509",
"]. c #B6A705",
"[. c #B1AC0A",
"{. c #AE8327",
"}. c #96A701",
"|. c #C8AD03",
" X c #D0AE00",
".X c #CA9801",
"XX c #DACC00",
"oX c #D3CA00",
"OX c #E3CC00",
"+X c #B98A53",
"@X c #82837C",
"#X c #B78B6A",
"$X c #9F8052",
"%X c #C9934C",
"&X c #C98B55",
"*X c #D8AB5A",
"=X c #CB936D",
"-X c #D2A66E",
";X c #E4A776",
":X c #EBB777",
">X c #EE9F78",
",X c #817F80",
"<X c #7D8584",
"1X c #7F9580",
"2X c #818181",
"3X c #8C8C8C",
"4X c #8A8B86",
"5X c #8A9589",
"6X c #93938B",
"7X c #8F8F91",
"8X c #8C9895",
"9X c #929292",
"0X c #9C9C9C",
"qX c #999A95",
"wX c #A19F9B",
"eX c #9EA29D",
"rX c #A6A598",
"tX c #A6A48F",
"yX c #A19FA0",
"uX c #9AA3A4",
"iX c #A3A3A3",
"pX c #ACACAC",
"aX c #A6AAA7",
"sX c #ACB3B4",
"dX c #B4B4B4",
"fX c #BCBCBC",
"gX c #B5B8B7",
"hX c #AFB0AB",
"jX c #EE9E80",
"kX c #ECAB84",
"lX c #F3AC88",
"zX c #F4B78B",
"xX c #FBB396",
"cX c #EDB089",
"vX c #DAA68E",
"bX c #BAC0BC",
"nX c #FBC292",
"mX c #C2C2C2",
"MX c #CCCCCC",
"NX c #C7C9C7",
/* pixels */
"2X9XfXMXMXiX2X2XqXmXMXMX0X,X2X0XNXMXfX7Xw.q.yXfX6.-.0.q.q.yXNXMXfX3X2X2XpXMXMXdX2X2X4XdXMXMXpX2X2X3X",
"2X9XfXMXMXiXd.2XqXmXMXMX0X,X2X0XMXmX4X%.W <.<X7.X.X.<.5.5.2.uXNXfX3X,X2XpXMXMXdX2X2X4XdXMXMXpX2Xq.3X",
"9X0XdXfXfXiX9X9X0XgXfXfXiX9X9XiXfXdX*.0 H >.<.R [ r.o.,.&.q 9.gXpXqX9X9XpXhXuX0X9X9XqXpXfXfXpX9X9X0X",
"MXfX9X2X<XpXMXMXgX4X2X2XpXMXMXdX2Xw.$.) { o.,.| r.(.).r.) 1 &.q.9XmXMXMX0X6.O.2.dXMXmX0X2X2XiXMXMXfX",
"MXfX9X2X<XaXMXMXgX4X2X2XpXMXMXdX2Xw.| ( `.'.^.^.(..X Xt.^ ; %.q.9XmXMXMX0X6.a i w.fXmX0X2X2XiXMXMXfX",
"MXfX9X2X<XpXMXMXgX4Xq.2XpXMXMXdX2Xw.| ( `.'.^.^./.)..Xt.] W :.q.qXmXMXMX0X5.@.e #.gXmX0X2X2XiXMXMXfX",
"4X9XgXmXmXiX4X4X0XfXmXmXiX4X4X0XfXdX<.) ^.o. .~ ^ ' e.] -.5XfXmXgX9X4X4XpXfXiX&.p w.3XdXmXmXpX2X2X9X",
"2X9XfXMXMXiX2X2XqXmXMXMX0Xq.2X0XiX6.p 0 ~ _ j f f l ^ 9 } 0XMXMXgX3X2X2XpXhX0.i p 0.2XdXMXMXpX2Xq.3X",
"2X9XfXMXMXiX2X2XqXmXMXMX0X,X2X0X3Xe & & d f l f f k s 6 u q.fXMXgX3Xq.2XpX0XO.e @.w.4XdXMXMXpX2X2X3X",
"0XiXpXpXpXiX0X0XiXpXpXpXiX0X0X0Xw.u s k l ' ' ^ h h f f g c q.pXpXwX0X0XiX2Xi #.q.0XiXaXpXpXiX0X0XiX",
"MXfX9X2X2XpXMXMXgX4Xq.2XpXMXmX2X$.p j l l u.p.i.a.;...z k 7 &.q.9XmXMXMX0X4.e Q ~.bXmX0X,X2XyXMXMXfX",
"MXfX9X2X2XpXMXMXgX4X2X2XpXMXgX4.u x j l ] s.=X;X;X#Xa.] f 7 &.q.9XfXMXMX4X%.3 , E 1XhXqX2X2XiXMXMXfX",
"MXfX9X2X2XpXMXMXgX4X,X2XpXMXgX*.8 f d ^ u.#XvXzXnXcX#Xu.^ 7 &.q.qXmXMXmX:.A V J V F !.3Xq.2X0XMXMXmX",
"2X9XfXMXMXiX2X2XqXmXMXMX0X,X0.@.8 f s _ p.-XcX;XlXkX%Xu.^ r 2XmXgX3X9.3.E K S.A.c.B E 9.gXMXpX@X2X3X",
"2X9XfXMXMXiX2X2XqXmXMXMX0Xw.<.} g l g  .+X:X:X*X>XjX%Xt.z 8 q.mXfX3X6.q G I K.K.F.L G +.aXMXpXq.2X3X",
"2X9XfXMXMXiX2X2XqXmXMXMX0X:.R h l ' k j +X:XnXzXlXlX*X{.' r q.mXfX3X6.a A K A.A.v.J D %.aXMXpX<X2X3X",
"pXpXiXiXiXiXpXpXaXiXiXiXiXw.t s z ..g v s.;XnXxXxXzX-X{.' 7 4.wXiXpX0Xw.W V I I K D +.7.9XiXiXpXpXpX",
"MXfX9X2X2XpXMXMXgX4X2Xq.9X0.r s z  .r 8 ..#XkXxXzX;X%Xu.^ 5 @.6.7XmXMXmX7.F V V F +.1X7Xq.@XiXMXMXfX",
"MXfX9X2X2XpXMXMXgX4Xq.w.=.t 7 s f f & $ u ..+XzX;X&Xu._ 6 6 8 @.2XmXMXMX7X>.S M X.qXgXqX@X2XiXMXMXfX",
"MXfX9X2X2XpXMXMXgX3X7.W t = ; 5 6 & O   $ h u.&X&Xi.e.g 5 s 5 p 2XfXMXNX@XX.[ { o.7.8XqX2X2XiXMXMXfX",
"2X9XfXMXMXiX,X,XqXmX5XS m m m > 2 +   .   6 ] f.f.i.] h 8 s 5 p w.8.6.4.| ( }.].^.R 3.pXMXMXpX2Xq.3X",
"2X7XfXMXMXiX,X,XqXmX5XS K I I K M 2 X X O j a.;XjX=Xs...g 5 1 1 p R t w 7 _ ].oX`.y *.pXMXMXpX2X2X3X",
"q.9XfXMXMXiX<X<XqXmX8XT J c.v.c.I Y M > $ h a.-XzXcX=Xy.h S m Z Z Y Z o @ ) ).|./.9 *.pXMXMXpX2X2X3X",
"gXdX0XqXqXiXgXgXpX0X9.O.F K I c.v.v.k.K 3 1 x a.#X=X$X| H K P j.v.v.K - @ 0 { /.{ 7 6.0XqXqXiXgXgXdX",
"MXfX9X2X2XpXMXMXgX4Xw.7.W S S K x.V.V.z.J > 7 u | | ) H K c.v.M.V.z.J : - 5 9 ~ d $ 5.9X2X2XiXMXMXfX",
"MXfX9X,X2XpXMXMXgX4X<Xq.~.:.t C g.m.N.B.b.K > @ # 7 7 m J h.k.h.k.K A = 2 8 ..y...7 5.9X2X<XiXMXMXfX",
"fXgX0X3X3XaXfXfXhXqX7X3X9X7.R C L g.n.F.C.x.C X   X - n J J B N C S r # # x s.=Xa.u 5.0X9X3XiXfXfXgX",
"2X9XfXMXMXiXq.2XqXmXNXgX>.F K L g.g.h.b.V.M.K o   X - n N > - ; t } } e w c d.#X1.r *.pXMXMXpX2X2X3X",
"2X9XfXMXMXiX2X2XqXmXsX!.! I v.M.m.g.h.z.m.v.Y - X X - > > X % w $.<.8.=.#.#.;.;.| 7 &.pXMXMXpX2X2X3X",
",X9XfXMXMXiX2X2XqXmX8XQ Y B.H.U.C.x.b.M.l.P Z > 2 w t t 1   % e 4.2X3Xq.<.-.X.` ~ 7 &.pXMXMXpX2X2X3X",
"mXgXqX4X4XpXmXmXdX9X:.S I D.Y.R.E.H.Z.V.l.L C 2 i *.6.4.@.+   w *.2X4X5.| ` ^.(.e.8 5.qX4X4XiXmXmXfX",
"MXfX9X2X2XpXMXMXgX4X:.3 c.G.R.W.W.W.U.V.z.L N > %.q.4Xw.#.# % # i 4.6.#.y ( _. X/.9 0.9X2X,XiXMXMXfX",
"MXfX9X2X2XpXMXMXgX4X:.t n.U.T.W.W.W.I.Z.M.P N , :.3X6X8.@.1 X X 1 p i w w _ [.oX`.9 w.9Xq.2XiXMXMXfX",
"dXpX0X0X0XiXdXdXpX0X7.S U G.U.R.W.W.R.I.C.j.C 3 :.3X@X%.3 - < - 2 1 1 + # _ |.XX`.y 5.0X0X0XiXdXdXpX",
"2X9XfXMXMXiX2X2XqXmX5XA U F.E.R.W.W.W.E.C.j.V w *.4Xw.%.3 < b b , = - o ; ( ].XX`.y *.pXMXMXpX2X2X3X",
"2X9XfXMXMXiX2X2XqXmX5XA I F.Y.W.W.W.W.Y.B.j.V 3 =.2X2X*.t = b N B n : : 4 ( ].oX`.9 *.pXMXMXpX2X2X3X",
"2X9XfXMXMXiX2X2XqXmX5XA I D.Y.W.W.W.W.W.H.c.B , :.4X4X5.@.2 - b B B B B S ` |.XX`.y *.pXMXMXpXq.2X3X",
"MXfX9X2X2XpXMXMXgX4X:.M U J.Y.T.T.W.W.R.U.k.N 3 %.w.w.*.i # - : n B B N , `  XOX`.y w.9X2X2XiXMXMXmX",
"MXfX3X2X2XpXMXMXgX3X:.M U J.Q.I.I.R.W.T.C.h.C 1 @.*.*.#.i w ; = : N B b : / |.OX`.y w.9X2X2X0XMXMXmX",
"MXfX9X2X2XpXMXMXgX4X:.M c.G.R.R.T.U.T.G.x.L m 1 e i @.*.<.&.p ; < N J N b / |.OX`.y w.9X2X2XiXMXMXfX",
"iXiXiXiXiXiXaXiXiXiXw.3 c.G.R.W.R.I.U.N.P N > @ e @.*.w.@X0.@.2 < N B N m / ].OX].9 4.iXiXiXiXiXiXiX",
"2X9XfXMXMXiXq.2X9XaXw.t I D.Q.W.W.W.I.N.L , @ # @.5.2XqXqX2X#.2 < N B : 4 ( _.OX(.9 *.pXMXMXpXd.2X3X",
"2X9XfXMXMXiX2X2X2X4.t , I D.Y.W.W.W.T.B.K = % # &.4XiXpXaX7X%.> : n N : 2 ` _.oX'.y *.pXMXMXpX2X2X3X",
"2X9XfXMXMXiX2X2Xq.#.; n c.H.W.W.R.T.I.N.J > + # *.3XpXdXaX7X%.> b n b = 2 ` _.XX].y *.pXMXMXpX2Xq.3X",
"MXfX9X2X2XpXMXMXiX@.> J B.R.W.W.T.U.P.M.J > + # =.3XpXdXiX4X#.3 N n < @ 7 ) [.OX].x w.9X2X<XyXMXMXfX",
"MXfX9X2X2XpXMXNXeXW b J M.I.W.W.W.E.V.l.J > + # =.3XpXhXaX9X#.3 N b = 1 w ` _.oX'.x w.9X2X2XiXMXMXfX",
"MXfX9X2X2XpXMXsX!.T V P N.T.W.W.Y.G.z.g.J -   + &.3XrXhXiX9X&.2 b < t *.} ` _.XX].x w.9Xq.~.iXMXMXfX",
"0X0XpXdXdXiXqX9.Q D P B.G.R.W.Q.E.B.j.L N -   + &.4XtXrXrX7X#.2 - - p w.,.( _.XX].x 4.iXdXdXpX0X0X0X",
"2X9XfXMXMXiXq.2.t C x.G.U.U.W.Q.T.Z.j.V > X   # &.4XtXrXqX4X$.# X + p 0.,.( _.oX'.y *.hXMXMXpX2X2X3X",
"2X9XfXMXMXeX:.W F h.N.R.T.T.R.T.U.C.h.C 2 w w w *.3XwXrX0X2X@.# + e &.w.,.( _.XX].x *.pXMXMXpX2X2X3X"
};
