/* XPM */
static char *f356121b206f47c585f224e6a81ddebeJ2cq1fEkdsofMktQ[] = {
/* columns rows colors chars-per-pixel */
"50 50 231 2 ",
"   c #050504",
".  c #0D0D0D",
"X  c #0A0807",
"o  c #0B150B",
"O  c #12130E",
"+  c #141413",
"@  c #1B1B1C",
"#  c #161B14",
"$  c #110E0B",
"%  c #211F14",
"&  c #2A130B",
"*  c #0B2C0B",
"=  c #082708",
"-  c #112E0A",
";  c #053305",
":  c #083907",
">  c #162715",
",  c #163816",
"<  c #11350E",
"1  c #38280A",
"2  c #262418",
"3  c #342A19",
"4  c #3B3A1E",
"5  c #3A361A",
"6  c #2D3311",
"7  c #1B3027",
"8  c #232423",
"9  c #2B2C2C",
"0  c #292921",
"q  c #352E25",
"w  c #293629",
"e  c #3D3C21",
"r  c #353228",
"t  c #333333",
"y  c #3B3B3B",
"u  c #393935",
"i  c #2A3734",
"p  c #432909",
"a  c #473205",
"s  c #573306",
"d  c #4D320F",
"f  c #663904",
"g  c #6D3E10",
"h  c #453927",
"j  c #4C3638",
"k  c #034302",
"l  c #044A03",
"z  c #0A4809",
"x  c #164606",
"c  c #015301",
"v  c #035B03",
"b  c #0C5808",
"n  c #155B0A",
"m  c #174717",
"M  c #175715",
"N  c #0A5014",
"B  c #294E15",
"V  c #036302",
"C  c #086903",
"Z  c #186804",
"A  c #077802",
"S  c #167801",
"D  c #1A6710",
"F  c #256903",
"G  c #247804",
"H  c #346F03",
"J  c #154B29",
"K  c #29492A",
"L  c #384829",
"P  c #3B463A",
"I  c #375536",
"U  c #2C542F",
"Y  c #31613B",
"T  c #534C05",
"R  c #595B09",
"E  c #585615",
"W  c #4C4B14",
"Q  c #674B0C",
"!  c #6C510E",
"~  c #4C6000",
"^  c #5C6513",
"/  c #656414",
"(  c #686809",
")  c #4F492E",
"_  c #63492C",
"`  c #50672B",
"'  c #69652F",
"]  c #413F40",
"[  c #384845",
"{  c #2D504B",
"}  c #2B4041",
"|  c #3A6748",
" . c #444444",
".. c #4C4C4C",
"X. c #464B46",
"o. c #4B544A",
"O. c #575749",
"+. c #4B5755",
"@. c #545453",
"#. c #595C5A",
"$. c #544A49",
"%. c #48644A",
"&. c #5A655A",
"*. c #4B6C4F",
"=. c #696F53",
"-. c #5B6A69",
";. c #4B6965",
":. c #646464",
">. c #6D6D6C",
",. c #656B65",
"<. c #6A7769",
"1. c #73726C",
"2. c #737473",
"3. c #7E7E7D",
"4. c #747A77",
"5. c #6C7070",
"6. c #6B5D43",
"7. c #885A08",
"8. c #8F750C",
"9. c #946733",
"0. c #AB7A38",
"q. c #966815",
"w. c #93704A",
"e. c #A77848",
"r. c #807F7D",
"t. c #905B6D",
"y. c #C47646",
"u. c #028301",
"i. c #0C8301",
"p. c #078B00",
"a. c #138300",
"s. c #198902",
"d. c #0D9700",
"f. c #199601",
"g. c #288A00",
"h. c #239201",
"j. c #299701",
"k. c #379A00",
"l. c #318000",
"z. c #19A701",
"x. c #0FA400",
"c. c #2DA201",
"v. c #2DAB00",
"b. c #24A000",
"n. c #36A900",
"m. c #28B401",
"M. c #37B701",
"N. c #4AAD00",
"B. c #43AA00",
"V. c #4CBC00",
"C. c #4BB401",
"Z. c #52BA01",
"A. c #5ABD01",
"S. c #57AD00",
"D. c #69AE00",
"F. c #38C900",
"G. c #4AC401",
"H. c #4CCB00",
"J. c #40CB00",
"K. c #54CC00",
"L. c #5CCB01",
"P. c #59C401",
"I. c #64CB00",
"U. c #60C601",
"Y. c #798479",
"T. c #6D8571",
"R. c #928F0D",
"E. c #A89507",
"W. c #AE8A04",
"Q. c #9FA016",
"!. c #BBB505",
"~. c #AEB003",
"^. c #BD8634",
"/. c #C99D00",
"(. c #C8B404",
"). c #D4AB03",
"_. c #CDCB00",
"`. c #D2CC00",
"'. c #E9CA01",
"]. c #F9CC00",
"[. c #BC8B5C",
"{. c #A48457",
"}. c #81817E",
"|. c #818274",
" X c #BA8772",
".X c #C19E48",
"XX c #CF8F5D",
"oX c #D19175",
"OX c #DDAA78",
"+X c #EBAA78",
"@X c #E1937C",
"#X c #7F7F82",
"$X c #817F80",
"%X c #7E8180",
"&X c #74898A",
"*X c #758C84",
"=X c #808080",
"-X c #8A8A86",
";X c #8A8A8A",
":X c #848985",
">X c #92918C",
",X c #969683",
"<X c #8E9693",
"1X c #949494",
"2X c #9A9A9A",
"3X c #979896",
"4X c #8C908C",
"5X c #A09E9F",
"6X c #98A59B",
"7X c #A7A597",
"8X c #9E9EA1",
"9X c #9AA3A3",
"0X c #A5A5A5",
"qX c #ACACAB",
"wX c #A7A9A7",
"eX c #B4B4B4",
"rX c #BABABA",
"tX c #B7BAB5",
"yX c #B2B3AE",
"uX c #EBA985",
"iX c #EAB584",
"pX c #FCB597",
"aX c #F1B189",
"sX c #BEC0BD",
"dX c #FCC491",
"fX c #B9BEC1",
"gX c #C1BFC0",
"hX c #BEC1C1",
"jX c #C5C5C5",
"kX c #CCCCCC",
"lX c #C7C7C8",
/* pixels */
"=X=X=X=XeXkXkXkXkXkX=X=X=X=X=X1XkXkXkXkXkX1X%X3.3.3.3.lX3.#.hXkXeX#X=X=X=X=XrXkXkXkXkXkX=X=X=X=X=X3X",
"wXwXwXwXwXwXwXwXwXwXwXwXwXwXwXwXwXwXwX0XwXwXwX1Xy L Y.<.` ' 1.4X;.<XwXwXwXwXwX9X0X0XwXwXwXwXwXwXwXwX",
"kXkXkXkX1X=X=X=X=X=XkXkXkXkXkXrX$X$X3.$X=XtXkXqX9 ^ =.X./ W.8.) i qXkXkXkXkX%X{ 4.=X#X#XkXkXkXkXkXeX",
"kXkXkXkX3X$X=X=X=X=XkXkXkXkXkXrX$X$X$X$X=XeXkXqX5 R.Q.Q.E.)./.Q 4 qXkXkXkXkX2.7  .4.=X#XkXkXkXkXkXeX",
"kXkXkXkX1X=X=X=X=X=XkXkXkXkXkXrX$X$X=X}.=XeXkXqX5 R.R.R.8.8.W.! &.tXkXkXkXkX=X .9 2.=X=XkXkXkXkXkXeX",
"kXkXkXkX1X$X=X=X=X=XkXkXkXkXkXrX=X=X=X=X=XrXgX%X8 R E d s f Q u -XkXkXkXkXkX-X@.9 2.=X=XkXkXkXkXkXeX",
"kXkXkXkX1X=X=X=X=X=XkXkXkXkXkXrX=X=X3.=X=XeXqXu & a f f s a a 3 >.jXkXkXkXkX4.@ y 4.=X=XkXkXkXkXkXeX",
"=X=X=X=XeXkXkXkXkXkX=X=X=X$X=X1XkXkXkXkXkX1X,.r f f 7.! 5 h f s q >.}.=X%X=X:X9 0XkXkXkX=X=X=X=X=X3X",
"3.=X=X=XeXkXkXkXkXkX=X=X=X$X$X1XkXkXkXkXkX3.t h s g e.XXXXe._ s q >.$X=X=X3.4.> I 6XlXkX=X$X=X=X%X3X",
"=X=X=X=XeXkXkXkXkXkX=X=X=X=X3.1XkXkXkXkXkX2.% s 1 9. XaXdXiX{.R r >.=X%X=X&.M v b m 6XkX$X=X%X=X=X3X",
"=X=X=X=XeXkXkXkXkXkX=X=X=X=X=X1XkXkXkXkXkX>.3 s 2 9.OX+X+X+X^.! q >.r.=X-.J Z S.k.V | 9X3.=X3.=X=X3X",
"=X=X=X=XeXkXkXkXkXkX=X=X=X=X=X1XkXkXkXkX6X) s f & e.iXiXaXuX.X7.q >.}.}.+., G D.B.C N *X3.=X%X3.3.<X",
":X:X:X:XeXlXlXlXlXlX:X:X:X:X:X1XlXlXlXlXY.6 f _ & w.iXpXpXaX.X7.q 2.:X:X>.I n l.S N *.6X:X:X:X:X:X1X",
"kXkXkXkX1X=X=X=X=X=XkXkXkXkXkXrX=X=X}.>.y 1 f h + _ [.uXpXOX0.Q 5 3.rXkXkX6XU c n { 5.=XkXkXkXkXkXtX",
"kXkXkXkX1X=X=X=X=X=XkXkXkXkXkXrX=X3.<.P > % s p $ % _ [.OX0.! 2 1 0 3XkXkXtX=.F E &.4.=XkXkXkXkXkXyX",
"kXkXkXkX1X=X=X=X=X=XkXkXkXkXkXrX=X3.U : k : > O   X 1 9.y.9.g 3 p # 3.qXqX|.^ ~.E.K -.=XkXkXkXkXkXyX",
"kXkXkXkX1X=X=X=X=X=XkXkXkXkXkXrX=X3.K Z g.G b > o O _ [.aX@Xe.d 2 > w B , 8 E '.!.e :.Y.kXkXkXkXkXeX",
"kXkXkXkX1X=X=X=X=X=XkXkXkXkXkXrX3.3.{ N S g.g.G v > 0 w.OXuXe.L b C G g.x + W E.W.3 :.}.kXkXkXkXkXeX",
"0X0X0X0XwXwXwXwXwXwX0X0X0X0X0XwXqXwX3X| x M f.m.m.Z > q $.6.W n g.h.v.f.v = 2 T T % 3.wX0X0X0X0X0XwX",
"=X=X=X=XeXkXkXkXkXkX=X$X3.3.=X1XkXkXkXwX&.m A f.N.c.C * @ % - V i.S a.D , # q 9.9.2 1XkX=X=X}.$X=X3X",
"=X=X3.=XeXkXkXkXkXkX=X=X=X=X=X1XkXkXkX6X%.b u.i.g.M.h.x . o : v z : m L r @ j oX{.q 3XkX%X$X$X=X=X3X",
"=X=X=X=XeXkXkXkXkXkX=X=X3.=X3.1XkXkX9X*.S h.x.p.s.z.j.x o o * : o + u =.&. .$.t.6.0 3XkX=X%X=X=X=X3X",
"=X=X3.3.eXkXkXkXkXkX=X=X=X=X=X1XkXkX;.D N.K.F.b.c.d.S x > 8 t 8 . + @.4X;X>.O.' T % 1XkX=X=X%X=X=X3X",
"=X=X=X3.eXkXkXkXkXkX=X=X=X=X3.1XkXlX%.F C.I.L.P.F.x.A z P >.4.@.@ . ] 4.2.) R !.E.3 3XkX=X=X=X=X=X3X",
"kXkXkXkX1X=X=X=X=X=XkXkXkXkXkXrX}.3.y G H.I.I.L.F.c.S l I >X,X#.> . # y y 8 E _.~.5 ,.=XkXkXkXkXkXeX",
"kXkXkXkX1X=X=X=X=X=XkXkXkXkXkXrX$X3.K H C.H.I.I.L.M.i.m @.>X<., ; ; = > # # E '.!.4 ,.=XkXkXkXkXkXeX",
"kXkXkXkX1X=X=X3.=X=XkXkXkXkXkXrX=X3.K F N.L.I.I.I.n.i.z ..;X>.w ; c c : ; - R `.!.5 ,.=XkXkXkXkXkXeX",
"kXkXkXkX1X=X=X3.=X3.kXkXkXkXkXrX=X3.K Z N.I.I.I.I.Z.s.z X.-X3.X.> : v v c x / '.!.e ,.=XkXkXkXkXkXeX",
"kXkXkXkX1X=X=X=X=X=XkXkXkXkXkXrX=X3.K H S.L.K.I.I.G.a.z X.4.>. .> ; k v v k R ].!.4 ,.=XkXkXkXkXkXeX",
"lXlXlXlX3X;X;X;X;X;XlXlXlXlXjXeX;X:XU H A.L.H.K.I.v.A < t ......u > ; c c k ~ ].!.5 >.;XlXlXjXlXlXeX",
"=X=X=X=XeXkXkXkXkXkX3.=X=X3.3.1XkXkX%.S G.I.L.H.K.s.v - 8 y #.3.,.9 * c v l ~ '.(.4 3XkX=X}.=X=X3.3X",
"=X=X=X=XeXkXkXkXkXkX=X=X#X=X=X1XkXqXX.F N.I.I.L.F.S * + y 2.>X7X}.i ; c l - R `.(.5 3XkX=X}.=X=X=X3X",
"=X}.}.=XeXkXkXkXkXkX=X=X$X=X=X1XrX..< G C.I.I.L.L.S * +  .>XqXqX:XK ; c k * E _.!.e 3XkX=X}.=X=X=X3X",
"=X}.}.=XeXkXkXkXkXkX=X$X=X=X=X1XrXP l k.I.I.L.J.F.S * +  .1XeXwX:Xt l l * # E `.).4 3XkX=X=X=X#X=X1X",
"3.3.=X3.eXkXkXkXkXkX=X=X=X=X=X1XeXU c b.K.I.I.G.x.C * + ..1XyXqX;X9 l k = 2 E _.!.e 3XkX=X=X$X=X3.3X",
"qXqXqXqX0X2X0X2X2X2XqXqXqXqXqX9X;.M S B.L.I.U.n.p.V = .  .>X7X7X-Xt ; * o.,./ `.(.e 3.5XqXqXqXqXqXwX",
"kXkXkXkX1X=X=X=X%X%XkXkXkXkXkXqXi V n.G.K.I.P.v.A z o .  .>X7X7X}.9 o # >.,X( _.(.e ,.%XkXkXkXkXkXeX",
"kXkXkXkX1X=X=X=X%X%XkXkXkXkXtX<.m s.V.L.K.L.G.v.C > 8 8 ..>X7X2X3.9 +  .3X,X( _.(.h ,.%XkXkXkXkXkXeX",
"kXkXkXkX1X3.=X=X=X=XkXkXkXfXT.M S M.L.I.I.P.m.s.l > .. .@.;X8X8X=Xt X.3XkX,X( _.(.e ,.=XkXkXkXkXkXeX",
"kXkXkXkX1X3.=X=X=X=XkXkXkX6XJ C k.P.I.I.I.V.j.C # t ,...@.;X8X8X;Xy 1XkXkX,X/ _.~.4 :.=XkXkXkXkXkXeX",
"kXkXkXkX1X=X=X%X=X=XkXkXsXY.b a.Z.I.H.K.K.M.h.b > @.3.@.@.;X8X2X:Xu 1XkXkX6X` ~.R.B ,.$XkXkXkXkXkXeX",
"Y.=X=X=XeXkXkXkXkXkX=X3.%.z C k.P.I.I.I.H.m.A v ; =.}.....;X2X1X2.t :.=X=X3.Y.x W 7XlXkX=X=X=X=X=X3X",
"3.=X=X=XeXkXkXkXkXkX3.%.M a.C.P.I.I.I.H.m.p.V m o.,...9 @.1X3X3. .9 :.=X=X-.Y G n P 0XkX3.=X}.=X=X3X",
"3.=X=X=XeXkXkXkXkXkX+.M S c.H.L.H.L.D.V.z.A b w :.[ 8 y 2.2X3X4.y @.4.=X=X#.m j.C ; <XkX=X=X=X=X=X3X",
"=X3.=X=XeXkXkXlXT.,.J A n.V.K.I.K.I.Z.v.p.v < 8 @.9 +  .3.>X-X,.} 5.=X=X%X#., S m T.eXkX=X%X=X$X=X3X",
"=X=X=X$XeXkXrX*XM z Z j.M.Z.L.K.L.Z.M.f.A l . + 9 + . 0  .@.@.+.-.4.=X=X=X#.< l w eXkXkX=X=X=X=X=X3X",
";X;X;X;XeXeXY.J C a.f.c.n.n.V.F.G.c.h.S v ; X         X + 2 h  .3.=X-X;X;X&.< : w wXjXjX;X;X;X;X;X3X",
"kXkXkXeX4.@.7 V s.h.d.z.m.m.j.M.m.d.u.c = o         X @ 8 1 7._ u ;XrXkXkX-X, l 0 2.=X=XkXkXkXkXkXeX",
"kXkXkX&Xi 8 , v C A u.f.f.p.i.h.d.u.V : + O $     X @ @...1 7.7.5 0 ;XjXkX4X: ; 8 2.Y.r.kXkXkXkXkXeX",
"kXkXkXhX:X>.&.w w w M V V V V V V V m # 8 r 1 X   9 :X4.@.0 p ! T d h 1XkX<XJ ; K 2.=X=XkXkXkXkXkXeX"
};
