/* XPM */
static const char *NjZjZGQxNzJmMGYwYV9kb3dubG9hZA__[] = {
/* columns rows colors chars-per-pixel */
"50 50 240 2 ",
"   c #1B1816",
".  c #10110C",
"X  c #251D1A",
"o  c #2B1E1D",
"O  c #241A13",
"+  c #391918",
"@  c #2A0612",
"#  c #3D2B0D",
"$  c #292318",
"%  c #382819",
"&  c #343015",
"*  c #2A1824",
"=  c #252423",
"-  c #2D2D2F",
";  c #362C23",
":  c #3C362D",
">  c #353329",
",  c #3A3934",
"<  c #431E16",
"1  c #462A0C",
"2  c #572C09",
"3  c #4C330C",
"4  c #58360A",
"5  c #482713",
"6  c #552C15",
"7  c #4C3114",
"8  c #473518",
"9  c #533816",
"0  c #673405",
"q  c #612A03",
"w  c #473727",
"e  c #543A25",
"r  c #413C36",
"t  c #4A352D",
"y  c #5A480B",
"u  c #4E4C19",
"i  c #4C481A",
"p  c #574819",
"a  c #5E571B",
"s  c #64430D",
"d  c #6A490A",
"f  c #694506",
"g  c #764A04",
"h  c #69540A",
"j  c #765507",
"k  c #674916",
"l  c #6C5C14",
"z  c #685719",
"x  c #775A17",
"c  c #774915",
"v  c #696415",
"b  c #786715",
"n  c #766A0F",
"m  c #4C4625",
"M  c #584A25",
"N  c #595823",
"B  c #585524",
"V  c #44433D",
"C  c #484536",
"Z  c #584B3B",
"A  c #5B543A",
"S  c #644C24",
"D  c #675827",
"F  c #6D552E",
"G  c #6C6726",
"H  c #776924",
"J  c #766D34",
"K  c #484744",
"L  c #514D49",
"P  c #57534B",
"I  c #545454",
"U  c #5A5855",
"Y  c #615B52",
"T  c #66664A",
"R  c #727543",
"E  c #64625E",
"W  c #646356",
"Q  c #727152",
"!  c #646363",
"~  c #6C6C6B",
"^  c #6A6662",
"/  c #78756C",
"(  c #757474",
")  c #7D7D7D",
"_  c #7A7976",
"`  c #706D62",
"'  c #893F02",
"]  c #874B01",
"[  c #885D02",
"{  c #955903",
"}  c #8D5409",
"|  c #886604",
" . c #956703",
".. c #887206",
"X. c #9A7401",
"o. c #826A19",
"O. c #887516",
"+. c #927019",
"@. c #A97805",
"#. c #AE6F07",
"$. c #836E28",
"%. c #897826",
"&. c #937B29",
"*. c #887533",
"=. c #987F38",
"-. c #A27D2C",
";. c #887649",
":. c #7F817E",
">. c #948E13",
",. c #AA8700",
"<. c #B98703",
"1. c #BB9102",
"2. c #AC970F",
"3. c #BDBE03",
"4. c #ACA706",
"5. c #988827",
"6. c #85863C",
"7. c #928239",
"8. c #989538",
"9. c #8A882B",
"0. c #A78928",
"q. c #AB942A",
"w. c #AA992A",
"e. c #B99828",
"r. c #A59435",
"t. c #B79636",
"y. c #AB8C2F",
"u. c #BBAA27",
"i. c #B7A435",
"p. c #A9AA34",
"a. c #C58802",
"s. c #CD9A00",
"d. c #C89502",
"f. c #D59A00",
"g. c #D4930D",
"h. c #E19F00",
"j. c #C6A902",
"k. c #D3A401",
"l. c #DAAC00",
"z. c #D7A501",
"x. c #D8B301",
"c. c #CAA81A",
"v. c #C5BF05",
"b. c #E2AD01",
"n. c #E2A400",
"m. c #E8B900",
"M. c #F7BD00",
"N. c #C69C37",
"B. c #C59827",
"V. c #CBAA2B",
"C. c #C7A629",
"Z. c #CCB62A",
"A. c #D5B62C",
"S. c #C7A737",
"D. c #CBB332",
"F. c #C9B737",
"G. c #D7B938",
"H. c #DDAB28",
"J. c #E8BE2E",
"K. c #BBC203",
"L. c #DCDA01",
"P. c #CECC03",
"I. c #E8C700",
"U. c #F3C301",
"Y. c #FCC400",
"T. c #FDCC00",
"R. c #E6DC01",
"E. c #FED300",
"W. c #FEDC00",
"Q. c #F1D801",
"!. c #FFE400",
"~. c #FEEC01",
"^. c #F2E200",
"/. c #F5F300",
"(. c #FEF200",
"). c #FFFE00",
"_. c #E4E701",
"`. c #CCC03D",
"'. c #D6D734",
"]. c #D9C52B",
"[. c #E6D52C",
"{. c #E6C637",
"}. c #F5DE3B",
"|. c #F9D938",
" X c #EBCC2F",
".X c #FFE437",
"XX c #F8E42B",
"oX c #908D47",
"OX c #AD9248",
"+X c #BAAD41",
"@X c #80817E",
"#X c #8A857F",
"$X c #C69C52",
"%X c #C5AE44",
"&X c #CCB543",
"*X c #C4A958",
"=X c #DAC746",
"-X c #D8C757",
";X c #EBD945",
":X c #FAD74F",
">X c #E5CB59",
",X c #E7CF46",
"<X c #FDE746",
"1X c #FFF94C",
"2X c #FBE955",
"3X c #FFFF54",
"4X c #FEFC5C",
"5X c #FAF457",
"6X c #E9E84F",
"7X c #E4DB62",
"8X c #7F7F81",
"9X c #817F80",
"0X c #7F8180",
"qX c #828282",
"wX c #888986",
"eX c #868688",
"rX c #8B8B8B",
"tX c #8A8683",
"yX c #958D8C",
"uX c #93928E",
"iX c #8E8E90",
"pX c #949494",
"aX c #9B9B9B",
"sX c #999997",
"dX c #8F918E",
"fX c #9DA39C",
"gX c #A3A3A3",
"hX c #ABABAB",
"jX c #A8A8A8",
"kX c #B2B2AF",
"lX c #B3B3B3",
"zX c #BABABA",
"xX c #B8B8B8",
"cX c #AFB0B0",
"vX c #C4C4C4",
"bX c gray80",
"nX c #CDCDCD",
"mX c #CDCECE",
"MX c #CCCCCC",
"NX c #C8C9C7",
/* pixels */
"aXaXgXlXlXjXaXaXjXcXcXjXaXaXjXlXlXgXaXsXjXjXQ v ` sXhXlXlXaXaXaXlXlXlXaXaXaXcXlXlXaXaXaXlXlXhXaXaXaX",
"qXqXpXnXnXlXqXqXaXnXnXjXqXqXjXnXnXsXqX9XlXkX9.x.D ( vXbXnXqXqXqXnXnXnXqXqXqXnXNXnXqXqXqXnXnXNXqXqXrX",
"qXqXpXNXNXlXqXqXgXNXNXjXqXqXjXNXNXaXqXqXcXT 3.(.j.D uXvXNXeXqXqXNXNXNXqXeXqXNXNXNXqXqXqXNXNXNXqXqXrX",
"lXlXhXsXsXgXlXlXjXsXsXjXlXlXjXsXsXjXhX_ R >._.).!.j.+.T tXhXlXlXsXsXsXlXlXlXsXsXsXlXlXlXsXsXsXlXlXhX",
"nXNXxXqXqXsXnXnXhXqXqXjXnXnXgXqX) gX/ >.K.R.).).).(.U.1.S ` NXnXqXqXqXnXnXMXqX) qXnXnXnXqXqXeXnXnXvX",
"NXNXlXeXeXsXNXNXhXeXeXjXNXNXgX_ ` G 4._.(.).).).).).(.T.j. .;.tX( qXeXNXNXNXeXeXeXNXNXNXeXeXrXNXNXzX",
"pXpXaXlXlXjXpXpXgXxXlXjXpXpXpXR >.L./.).).).).).).).(.~.E.U.d. .M / hXsXpXpXlXlXlXpXpXpXlXlXlXpXpXsX",
"qXqXpXnXnXlXqXqXaXbXnXjX) E G L./.).).).).).).).).).).(.!.T.Y.n.1.d K _ ) 9XnXNXnX) qXqXnXnXNXqXqXrX",
"eXeXpXNXNXlXeXeXgXNXNXjX! n R.).).).).).).).).).).).(.(.!.E.Y.U.l.,.y : _ eXNXNXNXeXeXeXNXNXvXeXeXpX",
"xXxXlXpXpXaXxXxXjXpXpXdXJ 3.).).).).).).).).).).).).).~.!.!.E.M.m.d.X.7 ~ xXdXdXpXxXxXxXpXpXpXxXzXlX",
"nXnXxXqXqXsXnXnXhXqX) T 4.^.).).).).).).).).).).).).(.(.!.E.E.T.I.g.@.g ; fX9X9XqXnXnXnXqX) eXMXnXvX",
"NXNXlXeXeXaXNXNXjXeX( H L.).).).).).).).).).).).).(.(.~.W.E.E.T.M.f.,.j 1 E tXeXeXNXNXNXeXeXrXNXNXzX",
"rXrXsXvXvXhXrXrXgXvXuX..Q.).).).).).).).).).).).).(.~.W.E.T.T.M.I.f.X.g 3 = xXvXvXrXrXrXvXvXxXrXrXpX",
"qXqXpXnXnXlX) qXaXbXsXn I.!.).).).).).).).).).).~.~.!.W.E.T.T.M.l.z.@.h 4 $ NXMXNXqXqXqXMXnXNX) qXrX",
"eXeXpXNXNXlXeXeXgXNXpXj n.W.!.~.(.~.(.(.(.(.(.(.!.!.T.E.Y.m.m.b.k.d.X.x 3 = vXvXNXeXeXeXNXNXvXeXeXpX",
"NXNXlXeXeXaXNXNXhXeX( S <.Y.E.T.!.W.~.!.!.W.!.!.E.E.T.Y.U.x.b.l.s.<. .s % ^ eXeXeXNXNXNXeXeXrXNXNXzX",
"nXnXxXqX@XsXnXnXhXqX) Y  .I.T.T.E.T.T.E.E.T.W.E.U.U.T.m.n.x.h.f.,.| f 1 > jXqXqX9XnXnXnXqX) eXMXNXvX",
"NXNXlXeXeXsXNXNXhXeXeX@XS f.Y.E.T.E.T.T.T.Y.U.M.m.b.l.z.d.d.d.@.| d 6 $ E zXeXeXeXNXNXNXeXeXrXNXNXxX",
"qXqXpXnXNXlXqXqXaXnXnXjXr k <.b.I.T.T.T.M.x.b.s.s.d.,.@.X. .| h 0 e =   ! @XMXMXnXqXqXqXbXnXNXqXqXrX",
"qXqXpXnXNXlXqXqXgXnXnXjXV x x +.,.s.f.k.f.d.1.1.,.X. .j s y 9 w ; O   = ~ ) NXMXbXqXqXqXnXnXNXqXqXrX",
"eXeXpXNXNXlXeXeXgXNXNXgXK v.x.@.j d k h j |  .X. .[ f 4 # $ + X $ X % . = - ( vXNXqXtXeXNXNXNXeXeXrX",
"nXnXxX) qXsXnXnXjX( I Z s 4./.~.I.m.m.k.| h s d d 9 e 4 d h j 4 5 o     + = = V ~ NXnXnXqX0XeXnXnXvX",
"MXMXxXqXqXsXnXxXP e c { #. .,.4.R.^./.~.Y.U.d.@.#.@.#. .| ] g 3   X + o + o 1 y m fXMXnX9X8XeXnXnXvX",
"NXNXxXqXqXsXlXK ; 4 } { { { c k D z 4.P.4.1.a.k.l.1...0 5 O   X @ + * $ e x %.6.l ~ NXNXqXqXeXNXNXzX",
"qXqXpXnXNXlXL a 8.p.w.8.O.k k M 9 2 % 5 5 7 4 d j 4 5 O o = X % 8 p D $.>.t.B.y.O.m ~ ) MXnXNXqXqXrX",
"qXqXpXnXbXjXQ '.6X5X6X,XA.i.w.p.5.n H k 4 ] ' 0 2 5 + o + 1 S o.0.t.w.OXS.S.V.t.%.u ~ ) nXMXNXqXqXrX",
"qXqXpXnXnXgX6.4X3X4X5X<X|.XX|.,X>X>X X*XO.4 ] ] % < e h O.8.e.C.F.>.>.OXc.F.B.N.5.Z ~ 8XMXnXNX@XqXrX",
"bXnXxXqXqX( 6.5X3X1X4X<X2X}.i.w.[.<X1X|.J.D 2 + & D -.t.C.&XD.F.>.w x 5.e.F.Z.C.7.N jXnXqXqXeXNXnXvX",
"nXbXxXqXqX( oX7X4X3X2X<X.XG.z p D.<X<X1X|.r.% % J e.C.D.D.D.S.y.S % i %.t.S.Z.V.&.N jXnXqXqXeXNXnXvX",
"NXNXxXqXqX_ Q 5X3X1X2X[.%X} f & >.'.<X.X:Xc.3 i t.D.Z.G.%X+Xe.n   2 7 8 $.e.&XH.oXN jXNXqXeXrXNXNXzX",
"qX) pXMXMXaXJ :X1X2X[.&.d e 9 : B u.;X}.<XG.y x e.F.D.V.V.q.l 8 , 9 | g p G w.V.=.u ~ ) nXnXNXqXqXrX",
"qXqXpXMXbXaXH 6X5X;XJ k y L E ( U G &X[.<X=XD H u.%XF.D.t.v w I ( P p | [ s b c.;.u ~ qXnXMXNXqXqXrX",
"rXrXsXvXvXsX;. X<Xu.f g e ( rXwX) I x S.{.].h  .C.V.V.C.&.$ K ( eXqX^ r d j k e.5.u ( rXvXvXzXrXrXpX",
"nXnXxXqX@X( ;.}.}.O.h y Y eXrXrXrX( V 5.].{.D o.S.D.D.t.u , ! rXrXrXtX~ M [ y 5.0.N jXnXqX@XeXbXnXvX",
"bXbXxXqXqX( J XX=Xj [ i / rXeXrXeX@XI D G.].v o.S.S.V.%.> I ( wXtXrXrX( S [ s %.e.N jXbXqXqXeXnXnXvX",
"xXxXhXpXpX) %.:XF.z [ p ( rXyXyXpXqXI D =X-Xx H S.F.A.o.> ! qXiXrXrXeX( m j y &.OXN sXxXpXpXpXxXxXlX",
"9XqXpXMXbXgXJ |.D.h | M _ rXrXiXrXqXI D [.=XD o.S.D.S.b : ~ rXrXwXrXrXqXA j s +.q.u ~ ) nXnXNXqXqXrX",
"@XqXpXnXnXgX9.2Xt.j  .S _ rXrXrXrXqXU a {.{.D $.V.D.$Xb , ~ eXrXrXrXrXeXI h y *.7.u ~ 9XnXnXNXqXqXrX",
"sXsXgXlXlXpXoX|.2.h #.D _ rXrXeXrXqX! C %X XD b S.F.e.b : ( rXrXrXrXrXrXU d 4 o.o.m qXsXlXlXcXsXsXaX",
"bXNXxXqXqX_ oX<Xq.h <.S _ rXrXrXrXeX^ C e.{.l b N.D.N.l , ( wXrXrXrXeX( C 0 # 8 C ) NXbXqX9XeXnXnXvX",
"bXnXxX9XqX( &.-Xy.y @.a _ eXrXrXrXrX~ C r.>Xl n N.A.B.l , _ rXrXeX/ P w 2 $   K ( nXnXnXqXqXeXnXnXvX",
"jXjXjXgXgXpXW %.o.y #.i ! ) wXrXrXeX_ C 5.{.F v t.D.t.l : ) wX_ ^ w 2 e t L pXgXgXjXjXjXgXgXgXjXjXjX",
"qX) pXbXnXlX( ^ C # 8 6 6 C W @XrXrX) V r.}.x H e.D.t.l : ~ E t 8 2 2 r ! ) nXnXnXqXqXqXnXnXNXqXqXrX",
"qXqXpXbXnXlXqXqXrXeX, 7 0 0 7 C ` tX_ C 0.[.G n e.D.e.b ; : 7 2 2 K tX) qXqXnXnXnXqXqXqXnXnXNX) qXrX",
"jXjXjXgXgXjXjXjXjXgXrX( K 6 q 2 e P ! C e.{.b o.S.D.V.o.$ 2 2 w L qXgXjXjXjXgXgXgXjXjXjXgXgXjXjXjXjX",
"nXMXxXqX@XsXnXnXhXqX0XjXzXuXr 1 2 2 % > +X].F $.S.D.S.b $ ; E hX) 9XqXbXnXnXqXqXqXnXnXnXqXqXeXnXnXvX",
"nXnXxXqX) sXMXnXhXqXqXjXnXNXpXI w 7 0 7 u.=Xz $.S.e.%.p V sXMXMXqX) qXMXnXnXqXqXqXnXnXnX@X@XeXnXnXvX",
"sXsXgXlXlXjXsXsXjXlXlXjXsXsXjXlXjX~ : % 5.i.k b =.z P #XjXsXsXsXlXlXlXsXaXsXlXlXlXsXsXsXlXlXcXsXsXaX",
"qXqXpXnXnXlXqXqXaXnXnXjXqXqXjXnXnXsX_ U A F 8 8 r U xXnXnXqX@XqXnXnXnXqXqXqXnXnXNX) ) ) nXnXNXqXqXrX",
"qXqXpXnXnXlXqXqXaXNXnXjXqXqXjXnXnXaXqXqXgXrXI U ( 9XvXnXnXqXqXqXnXnXnXqXqXqXMXnXbXqX9X) nXnXNXqXqXrX"
};
