/* XPM */
static const char *NjZjZGQyYTQ0NmQzMV9kb3dubG9hZA__[] = {
/* columns rows colors chars-per-pixel */
"50 50 79 1 ",
"  c gray50",
". c #808080",
"X c #818181",
"o c gray51",
"O c #838383",
"+ c #848484",
"@ c gray52",
"# c #868686",
"$ c gray53",
"% c #888888",
"& c #898989",
"* c gray54",
"= c #8B8B8B",
"- c gray55",
"; c #8D8D8D",
": c #8E8E8E",
"> c gray56",
", c #909090",
"< c gray57",
"1 c #929292",
"2 c #939393",
"3 c gray58",
"4 c #959595",
"5 c gray59",
"6 c #979797",
"7 c #989898",
"8 c gray60",
"9 c #9A9A9A",
"0 c #9B9B9B",
"q c gray61",
"w c #9D9D9D",
"e c gray62",
"r c #9F9F9F",
"t c #A0A0A0",
"y c gray63",
"u c #A2A2A2",
"i c gray64",
"p c #A4A4A4",
"a c #A5A5A5",
"s c gray65",
"d c #A7A7A7",
"f c gray66",
"g c #A9A9A9",
"h c #AAAAAA",
"j c gray67",
"k c #ACACAC",
"l c gray68",
"z c #AEAEAE",
"x c #AFAFAF",
"c c gray69",
"v c #B1B1B1",
"b c #B2B2B2",
"n c gray70",
"m c #B4B4B4",
"M c gray71",
"N c #B6B6B6",
"B c #B7B7B7",
"V c gray72",
"C c #B9B9B9",
"Z c gray73",
"A c #BBBBBB",
"S c #BCBCBC",
"D c gray74",
"F c gray",
"G c gray75",
"H c #C0C0C0",
"J c #C1C1C1",
"K c gray76",
"L c #C3C3C3",
"P c gray77",
"I c #C5C5C5",
"U c #C6C6C6",
"Y c gray78",
"T c #C8C8C8",
"R c gray79",
"E c #CACACA",
"W c #CBCBCB",
"Q c gray80",
"! c #CDCDCD",
/* pixels */
".. -QQQm...uQQQw...AQQQ$...WQQH$..2HQQn*..wHQQh$..",
" . -QQQm...uQWQw...AQQQ*...WQQH$..2HQQn*..wHQQh$..",
"...-QQQm...uWQQw...AQQQ*...WQQH$..2HQQn*..wHWQh$..",
"hhhhuuuphhhpuuuphhhpuuuhhhhuuuuhhhhpuuphhhpuuuphhh",
"QQQH...7QQQh...zQQQ6...PQQW$..*PQQA*..7HQQz*..uPQQ",
"QQQH...7QQQh.. zQQQ2...PQQW...*PQQA*..7HQQz*..uPQQ",
"QQQH...7QQQh...zQQQ2...PQQW...*PQQA*..7HQQz*..uPQQ",
"777wmnnh777pmnnu777znnnw777nnnz777unnmhw77uznnpw77",
"...-QWQm...uQQQw.  AQQQ*...WQQH$..2HWQn*..wHQQh$..",
"...-QQQm...uQQQw...AQQQ*...WQQH$..2HQQn*..wHQQh$..",
" ..-QQQm...uQQQw...AQQQ*...WQQH$..2HQQn*. wHQQh$..",
"AAAm222wAAAh222hSSA7222mAAA2226AAAn622wmAAh622pmAA",
"QQQH...7QQQh...zQQQ2...PQQW$..*PQQA*..7HQQz*..uPQQ",
"QQQH...6QQQh.  zQQQ2...PQQW...*PQQA*..7HQQz*..uPQQ",
"QQQH...7QQQh...zQQQ2...PQQW...*PQQA*..7HQQz*..uPQQ",
"***2HHHn***pHHHu***mHHP-***HHHA-**6SHHz2**wSHHh-**",
"...-QQQm...uQQQw.. AQQQ*. .WQQH$..2HQQn*..wHQQh$..",
"...-QQQm...uQQQw...AQQQ*...WQQH$ .2HQQn*..wHWQh$..",
"...-QQQm...uQQQw...AQQQ*...WQQH$. 2HQQn*..wHQQh$..",
"QQQS...7QQQh.. zWQQ2...PQQW...*PQQA*..7HQQz*..uPQQ",
"QQQH...7QQQh...zQQQ2...PQQW...*PQQA*. 7HQQz*..uPQQ",
"WQQH...7WQQh...zQQQ2...HQQW...*PQQA*..7HQQz*..uPQQ",
"PPPS$$$7PPPh$$$zPPP6$$$HPPP*$$2HPPm-$$wSPPz-$$uHPP",
"...-QQQm...uQQQw ..AQQQ*...WWQH$..6HQQn*..wHQQh$..",
"...-QQQm...uQQQw...AQQQ*...WQQH$..2HQQn* .wHQQh$..",
"...-QQQm...uQQQw. .AQQQ*...WQQH$..2HQQn*..wPQQh$..",
"---6SSSz---pSSSu---nSSS2---SSSm2--7ASSz6--uASSh2--",
"QQQH...7QQQh ..zQQQ2...PQQW...*PQQA*..7HQQz*..uPQQ",
"QQQH...7QQQh...zQQQ2...PQQW...*PQQA*..7HQQz*..uPQQ",
"QQQH...7QWQh...zQQQ2...PQQW$..*PQQA*..7HQQz*. uPQQ",
"mmmn666ummmp666hmmmw666nmmm7667nmmz767unmmh766pnmm",
" ..-QQQm...uQQQw.. AQQQ*...WQQH$. 2HQQn*..wHQQh$..",
"...-QQQm...uQQQw...AQQQ*...WQQH$..2HQQn*..wHWQh$..",
".. -QQQm...uQQQw...AQQQ$...WQQH$..2HWQn* .wHQQh$..",
"wwwuzzzhwwwpzzzpwwwhzzzuwwwzzzhuwwuhzzpuwwphzzpuww",
"QQQH ..6QQWh...zQQQ2...PQQW...*PQQA*..7HQQz*..uPQQ",
"QQQH...7QQQh...zQQQ6 ..PQQW...*PQQA*..7HWQz*..uPQQ",
"QQQH...7QQQh...zQQQ2...PQQW...*PQQA*..7HQQz*..uPQQ",
"pppppppppppppppppppphpppppppppppppppphpppppppppppp",
"...-QQQm.. uQQQw...AQQQ$...WQQH$..2HQWn*..wHQQh$..",
"...-QQQm...uQQQw...AQQQ*...WQQH$..2HQQn*..wHQQh$..",
"...*QWQm. .pQQQw.. AQQQ*...WQQH$..2HQQn*..wHQQh$..",
"zzzzwwwuzzzpwwwhzzzuwwwzzzzwwwwzzzhwwwuzzzhwwwpzzz",
"QQQH...7QQQh...zQQQ2.. PQQW...*PQQA* .7HQQz*..uPQQ",
"QWQH.. 7QQQh...zQQW2...PQQW...-PQQA*..7HQQz*..uPQQ",
"QQWH . 7QWQh . zQQQ2...PQQW...*PQQA*..7HQQz*. uPQQ",
"6667AAAz666pAAAu666zAAA7666mmmn666wnAAz766umAAh666",
"...-QQQm...pQWWw . AQQQ*...WQQH$..2HQQn*..wHQQh$..",
"...-QQQm...uQQQw...AQQQ*...WQQH$..2HQQn*..wHQQh$..",
"...-QQQm...uQQQw...AQQQ*...WQQH$..2HQQn*..wHQQh$.."
};
