/* XPM */
static const char *NjZjZGQzZTgyOTc3OV9kb3dubG9hZA__[] = {
/* columns rows colors chars-per-pixel */
"50 50 253 2 ",
"   c #160E0B",
".  c #191717",
"X  c #0E0E0E",
"o  c #251B15",
"O  c #2F140A",
"+  c #3A250C",
"@  c #26231D",
"#  c #372518",
"$  c #363313",
"%  c #271C25",
"&  c #182F2B",
"*  c #2C2B2B",
"=  c #292525",
"-  c #352A29",
";  c #3B342A",
":  c #382A36",
">  c #3C3B3B",
",  c #373436",
"<  c #273735",
"1  c #18231E",
"2  c #461708",
"3  c #4B1C0E",
"4  c #452809",
"5  c #5B2E06",
"6  c #5A370A",
"7  c #462914",
"8  c #4B331A",
"9  c #523111",
"0  c #682C05",
"q  c #772E06",
"w  c #673404",
"e  c #7B3202",
"r  c #793609",
"t  c #703A18",
"y  c #47352B",
"u  c #433C3B",
"i  c #483836",
"p  c #593738",
"a  c #51332C",
"s  c #663B3C",
"d  c #41183A",
"f  c #3E4339",
"g  c #524715",
"h  c #764B13",
"j  c #48443A",
"k  c #5A483B",
"l  c #524E34",
"z  c #644533",
"x  c #79573E",
"c  c #6F4D2D",
"v  c #3E2D40",
"b  c #463C42",
"n  c #573B49",
"m  c #6C3E4C",
"M  c #374D4E",
"N  c #454443",
"B  c #494342",
"V  c #4C4B4B",
"C  c #494747",
"Z  c #594847",
"A  c #5B4B55",
"S  c #4A5757",
"D  c #545353",
"F  c #5D5C5C",
"G  c #595759",
"H  c #56584E",
"J  c #674A49",
"K  c #784A47",
"L  c #755745",
"P  c #6A4A5A",
"I  c #774955",
"U  c #685857",
"Y  c #755656",
"T  c #6B5942",
"R  c #67635A",
"E  c #7B645E",
"W  c #6F6647",
"Q  c #5C5A61",
"!  c #685867",
"~  c #785B65",
"^  c #705171",
"/  c #556A6B",
"(  c #646464",
")  c #6C6C6C",
"_  c #6A6767",
"`  c #756767",
"'  c #77736B",
"]  c #796775",
"[  c #687574",
"{  c #737373",
"}  c #7C7C7C",
"|  c #76797B",
" . c #66706F",
".. c #5B604C",
"X. c #833400",
"o. c #8C3301",
"O. c #883D03",
"+. c #973401",
"@. c #832B03",
"#. c #A93A00",
"$. c #B83D01",
"%. c #974600",
"&. c #914B0D",
"*. c #B24E01",
"=. c #8C5732",
"-. c #8D673D",
";. c #967032",
":. c #AB6B35",
">. c #8C6D14",
",. c #C1723F",
"<. c #895859",
"1. c #8F5155",
"2. c #A65D5E",
"3. c #916E4F",
"4. c #B9774A",
"5. c #AD7550",
"6. c #835768",
"7. c #855B78",
"8. c #97597A",
"9. c #965765",
"0. c #A45867",
"q. c #A65E76",
"w. c #8C676B",
"e. c #996564",
"r. c #8C7664",
"t. c #857777",
"y. c #906D73",
"u. c #A66B6B",
"i. c #B86976",
"p. c #A77875",
"a. c #B77879",
"s. c #AB6A6F",
"d. c #C67B4A",
"f. c #CD6F74",
"g. c #768276",
"h. c #BF8B3F",
"j. c #BC8B50",
"k. c #87827C",
"l. c #8F8372",
"z. c #B68666",
"x. c #B48876",
"c. c #C5865A",
"v. c #CA9353",
"b. c #D1946B",
"n. c #EA976A",
"m. c #D9A474",
"M. c #E7A975",
"N. c #F1B073",
"B. c #DEA65F",
"V. c #7D7E80",
"C. c #846A84",
"Z. c #827F81",
"A. c #837282",
"S. c #987594",
"D. c #996B8F",
"F. c #B06D8A",
"G. c #B378A5",
"H. c #CF768E",
"J. c #CE7DA8",
"K. c #7B8786",
"L. c #6F8788",
"P. c #828282",
"I. c #8C8C8C",
"U. c #868A89",
"Y. c #938B8C",
"T. c #9A8698",
"R. c #8A9495",
"E. c #939393",
"W. c #9C9C9C",
"Q. c #969998",
"!. c #94928B",
"~. c #A98887",
"^. c #B98886",
"/. c #B59395",
"(. c #A1A198",
"). c #AD8EAB",
"_. c #9CA5A5",
"`. c #A3A3A3",
"'. c #ACACAC",
"]. c #A8A9A9",
"[. c #B5AEAC",
"{. c #B8A8B4",
"}. c #B4B4B4",
"|. c #BBBBBB",
" X c #B9B8B8",
".X c #AFB0B0",
"XX c #9B9FA0",
"oX c #CA9594",
"OX c #CC858A",
"+X c #EB8899",
"@X c #F28E93",
"#X c #C9A489",
"$X c #F6BC89",
"%X c #F5BC96",
"&X c #EEAE8F",
"*X c #CF90AE",
"=X c #EE99BA",
"-X c #F092AA",
";X c #D8A4A5",
":X c #D8BBBA",
">X c #CAB4B1",
",X c #E6A8A6",
"<X c #FAA7B5",
"1X c #FBB9BA",
"2X c #F0A9B4",
"3X c #BFC1BE",
"4X c #FAC496",
"5X c #FAC389",
"6X c #CAC2BD",
"7X c #CAC3AF",
"8X c #F0C5A7",
"9X c #B48CCC",
"0X c #D497CB",
"qX c #D3ABCC",
"wX c #FBB6CC",
"eX c #E1B8D8",
"rX c #F0ADD0",
"tX c #E69BE5",
"yX c #D7A7EB",
"uX c #EBA7EB",
"iX c #E8B7E9",
"pX c #F7B8E4",
"aX c #F7B9F7",
"sX c #F4AEF4",
"dX c #FE9DC0",
"fX c #BDC1C4",
"gX c #C5C5C5",
"hX c #CBCBCB",
"jX c #C7C9C8",
"kX c #D6CAC9",
"lX c #D8D8D5",
"zX c #E6C8C6",
"xX c #F9C7CB",
"cX c #EADBD9",
"vX c #FADBDB",
"bX c #F1CCD4",
"nX c #EFE5DC",
"mX c #F9C3EA",
"MX c #FDC5FC",
"NX c #FECBFE",
"BX c #F8C4F5",
"VX c #ECCFE6",
"CX c #E6E5E5",
"ZX c #EBE6E3",
"AX c #ECEBEB",
"SX c #EBE8E6",
"DX c #F6E7E7",
"FX c #F4F2ED",
"GX c #FBF6EE",
"HX c #FAF6F3",
"JX c #FBFBFB",
"KX c #F8F6F4",
"LX c #F2E6F0",
/* pixels */
" X X'.W.E.E.`. X X X`.E.E.W.}. X X`.E.E.W.'. X X'.Q.E.E.`. X X}.`.E.E.XX}. X X`.E.E.W.'. X X'.W.E.E.",
"hXhX XE.P.P.`.jXhXjXW.P.P.E.|.hXhX'.} { { E.`.`.E.{ ) | `.hXhXgXW.} P.W.gXhXhX`.Z.P.I. XhXhX'.P.P.P.",
"hXhX XE.P.P.W.jXhXjXW.P.P.E.|.hXhX'.| D > B V V N > N ( `.gXjX6XQ.K.P.W.gXhXjX`.P.P.I. XhXhX'.P.P.P.",
"}.}.'.`.W.W.`.'.}.'.`.W.W.`.'.}.}.E.( j 7 7 7 7 7 7 8 Z ) } E.'.`.W.W.`.'..X.X`.W.W.`.'.'.}.'.W.W.W.",
"P.P.E. XgXgX'.U.P.U.'.gXgX XE.P.} ) u 8 0 q 0 0 q q 5 7 * = V } `. X X'.I.P.P.].gXgX XW.P.P.W.gXgXgX",
"P.P.E. XhXhX'.P.P.P.'.hXhX XI.{ V i 9 + + 4 4 4 9 8 7 7 + . * M D F ) U.P.P.P.'.hXhX|.E.P.P.W.gXhXjX",
"P.P.E. XjXjX'.P.P.P.'.jXjX XI.) * O 4 O o $ 8 g z p a 6 5 + O O + # y R _ (  .R.fXhX|.E.P.P.W.gXjXjX",
"'.'.'.`.`.`.`.'.'.'.`.`.`.`.'.U.,     O 2 h ;.j.c.d.:.&.w 5 0 @.e 0 5 ; * , < M K.`.`.'.'.'.`.`.`.`.",
"hXhX XE.P.P.`.jXhXgXW.P.P.E.|.`.b X   2 r :.v.M.N.N.n.:.h w e o.X.0 4 o * F [ / [ P.I. XhXhX.XP.P.P.",
"hXhX XE.P.P.W.jXhXgXW.P.P.E.|.'.F = . 5 &.c.M.$X$X$X$Xc.=.w e o.e 5 4 # j P.W.P.| } I. XhXhX'.P.P.P.",
"|.|.}.W.E.E.`. X|. X`.E.E.W. X}.E.G @ 6 >.h.M.&XM.M.&Xb.3.8 0 o.o.O.&.w 8 B V V { U.E..X|.|.'.E.E.E.",
"E.E.W.}. X X'.E.E.E.'. X X'.W.E.I._ @ g >.j.M.&XM.N.&Xm.5.; 7 q o.#.*.O.4 1 1 = G { L.U.E.E.(. X X X",
"P.P.E. XhXhX'.P.P.P.'.hXhX XI.P.k.( @ g ;.b.&X4X4X4X%XB.;.# # 9 e #.#.e $ & & * j S S  .} P.W.gXhXjX",
"P.P.E. XhXhX'.P.P.P.'.hXhX XI.P.P.( = l -.v.N.4X4X8X>Xz.=.3 3 0 e o.+.o.5 $ f ) U.U.K.K.} P.W.jXhXjX",
"W.W.`.'.'.'.'.W.W.`.'.'.'.'.`.W.W.} C B x ,.n.$X5X$X#X3.z 2 0 O.X.e o.o.e 9 l } W.`.`.`.XXXX`.'.'.'.",
"jXjX XE.P.P.W.gXjXgXW.P.P.E.|.jXjX`.) N y =.4.B.N.B.4.z # O 0 %.%.X.e X.X.w 8 > ) P.E. XjXjX'.U.P.P.",
"hXhX XE.P.P.`.jXhXjXW.P.g.E.|.hXhX].| N # a =.d.v.4.=.y # 0 o.*.*.%.X.w 5 4 O * ( k.I. XhXhX'.P.P.P.",
"jXjX XE.P.P.`.gXjXgXW.P.P.E.|.jXjX(.) j $ g =.,.:.3.T u y r +.$.*.*.+.w + o = , F | I. XjXjX'.U.P.P.",
"W.W.`.'.'.'.`.W.W.`.'.'.'.'.`.W.W.g.l l =.5.c.n.B.B.c.r.U p t O.%.*.#.e 4 o N { / [ XX`.W.W.`.'.'.'.",
"P.P.E. XhXhX'.P.P.P.'.hXhX XE.| ) ..g ;.v.m.&X%X5XN.N.#Xx.3.x c h r @.0 + . V Q.L.K..XE.P.P.W.gXhXjX",
"P.P.E. XhXhX'.P.k.P.'.hXhX XU._ C k -.v.N.$X8X8X4X4X%X4X&Xn.z.r.k # + # @ . C `.|.|.|.E.P.P.W.gXhXjX",
"E.E.W.}. X X'.E.E.E.'. X X].' l j U x.m.&X&X,X,X&X&X,X%X$Xn.n.z.T ; * S S < S `. X X}.W.E.E.`. X X X",
"|.|. XW.I.I.`. X|. X`.I.U.t.R l l r.^.^.x.a.a.p.x.^.^.#Xm.c.4.5.T j M | R./ [ K.U.I.Q..X|.|.'.E.E.E.",
"hXhX XE.P.P.`.jXhXgXW.} ) U Y <.W 3.z.r.R U Z Z U _ ` k.r.c z k j D  .R.|..XL.M  .Z.I. XhXhX'.P.P.P.",
"hXhX XE.P.} XXjXhXjXW.) _ w.~./.!.l.r.k.k.l.R G { U.I.t.J $ a Y ` [ [ R.gXjX_.[ [ P.I. XhXhX.XP.P.P.",
"'.'.'.`.`.`.`.'.'.`.I.) ' /.:XzX6XQ.( E.|.7X(.I.'.gX>Xy.p - K a./.Q.L.K.W.'.].XX`.`.`.'.'.'.`.`.`.`.",
"P.P.E. XhXhX'.P.P.) G t./.kXZXDXcX(.G E.hXCXlXlXCXAXcX~.K s <.oXkXjX_.{ F | P.].hXhX|.E.P.P.W.gXhXjX",
"P.P.E. XhXhX'.P.P.( V l.:XZXJXGXxX~.N ) `.lXSXAXAXZXlXY.J p e.;XcXCX|.) D { K.].hXhX|.E.P.P.W.gXhXjX",
"P.U.E. XgXgX'.P.t.) ( (.cXGXJXDX1Xu.* , U `.jXkXkX6X'.( * = <.,XDXFXjX{ D | P.'.gXgX XW.P.P.W.gXgXgX",
"}.}.'.`.W.W.`.`.} { I.>XZXHXJXDX<Xu.= @ u ` t.t.' _ G > = , t.zXFXKXhX[ S Q.'.`.W.W.W.'.}.}.'.W.W.W.",
"hXhX XE.P.} I.E.) ) E.>XcXDXDXbX-X2.- ; k K L k , = = - u _ ].ZXKXFXhX .M K.W.P.| P.I. XhXhX'.P.P.P.",
"hXhX XE.V.| ) R ' ' ` ^.2XxXwX=XH.1.; L 5.p.e.x y - - z w.oXzXFXHXDX6X_ , u V D _ | P.}.jXhX'.P.P.P.",
" X X.XW.K./ ..T r.r.Y s.+X-X-XH.9.p - 3.b.OXe.x c c L K e.;XbXFXKXcX>XE p s J Z V D ( E.}. X'.W.E.E.",
"I.I.W.}.R.M l -.z.u.1.0.i.f.f.9.B * = L p.q.~ J =.5.5.x K OX:XcXcX:X^.<.1.0.2.I i * B _ } U.XX|.gX|.",
"Z.P.E. XQ.> y K x.OXf.9.Y P J B < & * j J A b u k <.-.z p s.oX;X*XF.<.<.9.F.0.s i i J J F { W.jXhXjX",
"P.P.E. XQ.N n y.*X2X-XG.C.t.] ! M M ( { } } { { { E L y ; K <.6.6.m p Z I 8.8.7.7.D.F.w.! Q U.gXhXjX",
"`.`.`.`.P.D 7.0XiXBXBXyXyXeXqX).Q ) .XjXlXlXlXhXgXW.R u * = o o % % * : n ^ D.0XtXuXrX*X8.M  .XX].'.",
"hXhX}. .D <.G.tXaXNXNXaXaXmXiX9X! } hXCXFXFXSXCXCXhX'.E.) , . X . b ] S.G.T.0XiXaXMXmXqXT.S  .} P.P.",
"hXhX].S N s.=XsXMXNXNXNXNXMXiX9X^ P.lXFXJXFXcXlXAXKXAXlX.X_ , X . P *XuXsXeXVXNXNXNXMXeX).] ) { } P.",
"gXgX].F A ~.rXMXNXNXNXNXNXMXiX).| Q.lXFXGXcX[.W.hXAXGXFXlX'._ * = P *XpXaXBXBXMXMXNXMXsXtX/.y.U { P.",
"Q.Q.I.! ~ /.eXNXNXNXNXNXMXaX0XT.E. XnXGXDXzX~.} |.SXGXHXLXzX~.K i P J.pXBXmXmXaXiXVXMXaXsXrX/.7._ P.",
"{ { { 7.D.{.VXNXNXNXNXNXaXuXG.A.'.lXGXGXvX,Xu.` }.CXHXKXDXxX+X2.p n F.0XpXzXqX0X).{.qXiXBXaX0XF.A ) ",
"D C A 8.G.eXBXNXNXNXNXNXaX0XS.C. XCXJXHXvX;Xe.` [.CXHXFXvXwX-Xf.p * n D.*X*XS.^ G ! ] ).eXaXeX).A ( ",
"Z J I q.*XrXmXNXNXNXNXNXBXqXS.] |.AXJXHXvX;Xe.E [.SXHXDXbXdX-Xf.p . = n 6.7.A d i u b ~ G.0X=XoX~ U ",
"J <.2.a.OX-XwXMXNXNXNXNXBXqXZ.) |.AXJXHXvX,Xe._ }.SXGXvXxXdX-Xf.p .   o = = % d I Y n m 9.F.H.f.e.J ",
"; p p J w.H.=XpXMXNXNXNXBXqXD.)  XAXJXJXZX;Xe.~ [.CXHXvXwX<X+Xi.p o     . . . d q.H.s.q.9.I I K Z p ",
"N C V C P 8.H.=XrXpXpXpXrX=X8._  XSXJXJXZX;Xe.6.[.CXKXvX1X@XH.q.I p a a i y = : F.=X-X*XD.n > > > u ",
"U.U.I.E.U.! 9.f.@X+X;X+X+XH.6._  XSXGXFXcX,Xe._ }.CXAXvX1X@Xi.w.i.f.^.OXf.2.s > S.qX>X*XS.C F E.W.[ ",
"P.P.E. X XI.` K 1.<.<.<.1.I n D }.CXFXDXxX@Xe.( [.cXZXbX<X@XOX/.,X1XzXzX2XoXY * A C.S.T.A.N ) 3XhX].",
"P.P.E. XjX|.| M > > N B N u * V '.CXLXvX1X@X0.~ [.cXZXwX<X<X<XwXvXFXHXFXcX:X' . % v ^ ] Q > ) gXhXgX"
};
