/* XPM */
static const char *NjZjZGNmZjhlNWRjZF9kb3dubG9hZA__[] = {
/* columns rows colors chars-per-pixel */
"50 50 245 2 ",
"   c #190C0B",
".  c #161516",
"X  c #1C1C1C",
"o  c #1B1517",
"O  c #12110F",
"+  c #251A14",
"@  c #331109",
"#  c #38260C",
"$  c #26241B",
"%  c #382A19",
"&  c #3B330E",
"*  c #231C24",
"=  c #1E2F2F",
"-  c #0E2020",
";  c #272727",
":  c #372B2B",
">  c #38312C",
",  c #342B32",
"<  c #273F39",
"1  c #3A3434",
"2  c #3D3D3C",
"3  c #393639",
"4  c #2C3429",
"5  c #4F1606",
"6  c #4A290A",
"7  c #432A18",
"8  c #54310F",
"9  c #6D2E05",
"0  c #673403",
"q  c #7C3301",
"w  c #743202",
"e  c #7C370A",
"r  c #47372A",
"t  c #583C28",
"y  c #422B37",
"u  c #463535",
"i  c #563738",
"p  c #442E2B",
"a  c #633C3C",
"s  c #743C34",
"d  c #3D4F29",
"f  c #755309",
"g  c #47433B",
"h  c #554A34",
"j  c #634939",
"k  c #7E5836",
"l  c #6E522F",
"z  c #3F3841",
"x  c #5B3A45",
"c  c #4C3246",
"v  c #633A64",
"b  c #1A4443",
"n  c #2B4546",
"m  c #3A4444",
"M  c #3A5252",
"N  c #464444",
"B  c #4B4B4B",
"V  c #474546",
"C  c #564848",
"Z  c #5A5549",
"A  c #4B595B",
"S  c #545353",
"D  c #5C5C5B",
"F  c #595558",
"G  c #4C4A52",
"H  c #664444",
"J  c #784749",
"K  c #784C55",
"L  c #675558",
"P  c #785658",
"I  c #685252",
"U  c #766653",
"Y  c #674B67",
"T  c #6F586D",
"R  c #5A6666",
"E  c #556D6D",
"W  c #646364",
"Q  c #6C6C6B",
"!  c #6A6766",
"~  c #786867",
"^  c #6F6E70",
"/  c #746871",
"(  c #677575",
")  c #737474",
"_  c #7E7E7E",
"`  c #777979",
"'  c #6F746A",
"]  c #862E03",
"[  c #833300",
"{  c #883702",
"}  c #933300",
"|  c #AA3701",
" . c #935203",
".. c #A44201",
"X. c #B54201",
"o. c #84563B",
"O. c #935221",
"+. c #8E6631",
"@. c #B0723A",
"#. c #C15900",
"$. c #C3743B",
"%. c #875656",
"&. c #865351",
"*. c #8E6442",
"=. c #986A47",
"-. c #8A6958",
";. c #AD774A",
":. c #854D66",
">. c #91576F",
",. c #A75B6E",
"<. c #8A6664",
"1. c #976668",
"2. c #9A667A",
"3. c #82797B",
"4. c #977776",
"5. c #906F70",
"6. c #B56464",
"7. c #A86C76",
"8. c #AE7872",
"9. c #B36B73",
"0. c #C5747A",
"q. c #D6727A",
"w. c #D3764A",
"e. c #7E807F",
"r. c #BD8A39",
"t. c #B58852",
"y. c #80807E",
"u. c #818274",
"i. c #978775",
"p. c #B38A6F",
"a. c #CF8B59",
"s. c #DAA75A",
"d. c #CE906B",
"f. c #EDA975",
"g. c #F2B37D",
"h. c #E3A461",
"j. c #ECA16C",
"k. c #7E7E80",
"l. c #9B5F81",
"z. c #876982",
"x. c #817F80",
"c. c #887688",
"v. c #926F8D",
"b. c #AB738C",
"n. c #9A7AA3",
"m. c #A177AF",
"M. c #D17687",
"N. c #E27481",
"B. c #C67BA4",
"V. c #7D8181",
"C. c #7C8C8B",
"Z. c #758B8C",
"A. c #808080",
"S. c #8A8A8A",
"D. c #898987",
"F. c #8C8F90",
"G. c #8B9393",
"H. c #839295",
"J. c #959494",
"K. c #9D9D9D",
"L. c #999997",
"P. c #98898C",
"I. c #A88B86",
"U. c #A29796",
"Y. c #A98A8B",
"T. c #9EA09F",
"R. c #A0A09E",
"E. c #A889A6",
"W. c #B093AF",
"Q. c #9DA6A5",
"!. c #A5A5A5",
"~. c #ADADAD",
"^. c #A5A9A9",
"/. c #B6AAA5",
"(. c #ADB5B5",
"). c #B3B3B3",
"_. c #BDBDBD",
"`. c #B4B8B9",
"'. c #B0B0AF",
"]. c #C88685",
"[. c #DA9497",
"{. c #CD9596",
"}. c #F6878D",
"|. c #FA8594",
" X c #EB9194",
".X c #D2AA8C",
"XX c #EAAB84",
"oX c #F6BC89",
"OX c #EBB295",
"+X c #C684A9",
"@X c #D792B1",
"#X c #FD9AA9",
"$X c #EA92AD",
"%X c #DBA8AB",
"&X c #DBB8B8",
"*X c #CBB1B7",
"=X c #E5A9A7",
"-X c #FBB5B8",
";X c #ECABAC",
":X c #BEC0BF",
">X c #F8CB9C",
",X c #FCC78D",
"<X c #D2CBB9",
"1X c #EFC7AE",
"2X c #BA91D5",
"3X c #D199D2",
"4X c #FB98C4",
"5X c #E99FD2",
"6X c #CDB7CA",
"7X c #DCB3D2",
"8X c #FEA5C7",
"9X c #F9B7C9",
"0X c #F7B6D8",
"qX c #E9B2D8",
"wX c #DFADE2",
"eX c #E7A9E6",
"rX c #F1B0F1",
"tX c #E69AE4",
"yX c #BCC0C1",
"uX c #C4C4C4",
"iX c #CCCCCC",
"pX c #C7C8C8",
"aX c #D4C5C3",
"sX c #DCDCDB",
"dX c #D6D5D4",
"fX c #D8CAD4",
"gX c #FAC4C9",
"hX c #E6D6CD",
"jX c #F8C8D6",
"kX c #E7DCDA",
"lX c #F9D8D9",
"zX c #EEC4C5",
"xX c #E4E0DC",
"cX c #F3E1D7",
"vX c #F3D7E3",
"bX c #FDCBFE",
"nX c #F9C5F6",
"mX c #F5C7E9",
"MX c #E3E3E1",
"NX c #EBEAE7",
"BX c #F7E9E8",
"VX c #F8F2EB",
"CX c #F5F3F2",
"ZX c #FAF6F4",
"AX c #FBFAF8",
/* pixels */
"~.iXiXiXiXiXA.A.A.A.A.S.iXiXiXiXiX!.A.A.V.A.y.iXiXiXiXiXpXy.A.A.A.A.!.iXiXiXiXiXA.A.A.A.A.A.iXiXiXiX",
"~.iXiXiXiXiXA.A.A.A.A.S.iXiXiXiXiXR.x._ V.V.A.iXiXiXiXiXuXA.A.A.A.A.!.iXiXiXiXiXA.A.A.A.A.A.iXiXiXiX",
"~.iXiXiXiXiXA.A.A.A.A.S.iXiXiXiXiX!.A.x.` D F D.D.S.T.uXpXA.A.3.e.A.^.iXiXiXiXiXA.A.A.A.A.A.iXiXiXiX",
"~.iXiXiXiXiXA.A.A.A.A.S.iXiXiXiXiX!.A.` D p 7 % 7 7 Z S.J.` A.A.A.A.~.iXiXiXiXiXA.A.A.A.A.A.iXiXiXiX",
"K.A.A.A.A.A.iXiXiXiXiXuX_ A.A.A.x.~.uXJ.r 8 q 0 w w 6 + X L.).).uXiX!.A._ A.V.A.iXiXiXiXiXiXA.A.A.A.",
"K.A.A.A.A.A.iXiXiXiXiXuXA.A.A.A.A.~.L.> 6 + # 8 t t 8 6 + p r g 3.~.F.) e.A.A.A.iXiXiXiXiXiXA.A.A.A.",
"K.A.A.A.A.A.iXiXiXiXiXuXA.A.A.A.A.~.F.O   @ f @.a.w.O.0 0 ] ] 9 7 ; = n ` A.A.y.iXiXiXiXiXiXA.A.A.A.",
"K.A.A.A.A.A.iXiXiXiXiXuXA.A.A.A.x.~.J.X + 9 @.f.oXg.a.O.0 { q 6 + B ) R _ A.A.A.iXiXiXiXiXiXA.A.A.A.",
"K.A.A.A.A._ iXiXiXiXiXuXA.A.A.A.V.~.`.) % f r.f.f.f.XX=.# [ { { 0 r V B _ y.V.A.iXiXiXiXiXiXA._ A.A.",
"!.S.S.S.S.S.uXuXuXuXuX_.S.S.S.S.S.~.uXL.% f t.XXg.g.XX;.+ 8 } X.{ # - ; V A V.S._.uXuXuXuX_.S.S.S.S.",
"~.iXiXiXiXiX_ _ A._ A.S.iXiXiXiXiX!.A.Q $ l a.oX>X>X.X+.+ 8 q | [ & < F D E (.iXA.A.A.A._ A.iXiXiXiX",
"~.iXiXiXiXiXA.A.A._ A.S.iXiXiXiXiX!.A.Q c C $.f.,XOXp.l @ [ q [ } w h !.uXiXiXiXA.A.A.A.A.A.iXiXiXiX",
"~.iXiXiXiXiXA.A._ _ A.S.iXiXiXiXiX!._ _ Q 1 s ;.s.a.o.% 5  ...[ q 9 7 B _.iXiXiXA.A._ A.A.A.iXiXiXiX",
"~.iXiXiXiXiXA._ A.A.A.S.iXiXiXiXiX!.e._ Q > 8 @.@.*.g r ] | #...0 # $ B '.iXiXiXA.A.A.A.A.A.iXiXiXiX",
"~.iXiXiXiXiXA.A._ A.A.S.iXiXiXiXiX!._ ! d k t.d.f.h.p.~ t e  .| q # V G.E _.iXiXA.A.A.A.A.A.iXiXiXiX",
"!.K.K.K.K.K.~.~.~.~.~.~.K.K.K.K.K.!.S.g +.s.oX1X>X,XoXXXa.-.r 5 @ o 2 G.V.L.K.K.~.~.).~.~.~.K.K.K.K.",
"K.A.A.A.A._ iXiXiXiXiXuXA.A.V.A._ u.Z Z p..XOX=X=XOXOXoXj.d.l 4 D A n _ A.A.A.x.iXiXiXiXiXiXA.A.A.A.",
"K.A.A.A.A.A.iXiXiXiXiXuXy.A.x.A.Q I j U p.4.1.<.<.5.i.p.+.*.h Q ^.^.E A _ A.A.A.iXiXiXiXiXiXA.A.A.A.",
"K.A.A.A.A.A.iXiXiXiXiXuXy.y.k.^ ! 4.I.i.4.3.' S L k.3.I & H W C.`.iXG.A _ V.k.A.iXiXiXiXiXiXA.A.A.A.",
"K.A.A.A.A.A.iXiXiXiXiXuXV.y.Q L I.<XhX~.Q ).<XL.~.dX/.H : 8.*XC.H.).!.A.V.e.A.A.iXiXiXiXiXiXA.A.A.A.",
"K.A.A.A.A._ iXiXiXiXiXuXA.A.S b.aXVXBX{.F L.sXMXNXNX*XK i Y.kXpX) _ !.A.V.A._ A.iXiXiXiXiXiXA.A.A.A.",
"~.iXiXiXiXiXA.A.A.A.A.S.iXpX` /.BXAXlX].: g !.dXhX<XS., ; {.VXMX` S !.iXiXiXiXiXA.A.A.A.A.A.iXiXiXiX",
"~.iXiXiXiXiX_ A.A.A.A.D.'.Q S.aXBXZXjX0.: > I U F N 3 > S aXZXMX( M L._.iXiXiXiXA.A.A.A.A.A.iXiXiXiX",
"~.iXiXiXiXiXA.A.A.A.A.` Q ) ^ {.gXjX$X6.u =.8.=.r ; 1 <.%XBXAXkX' ; 2 Q uXiXiXiXA.A.A.A.A.A.iXiXiXiX",
"~.iXiXiXiXiXA.A.x.x.( B U p.P 9. X X9.x p t.M.-.k o.*.1.&XNXCX&X<.a J I L Q ).iXA.A.x.A.A.A.iXiXiXiX",
").iXiXiXiXiXA.A._ x.R ; k d.6.>.>.&.C = 4 U P C j =.*.J ].&X7Xb.%.,.6.H > C ` ).A.x.A.A.x.A.iXiXiXiX",
"~.uXuXuXuXuXS.S.S.S.W , >.&X$Xn.z./ F n R ` ` ) ) U j u &.%.:.x i :.>.>.z.Y.>.k.` S.S.S.S.S.uXuXuXuX",
"K._ A.A.A.A.iXiXiX`.k.P 3XnXnXrXeXqXn.W _.MXMXsXsX~.Q V $ o o y Y T n.wXrX0X+XG C.iXiXiXiXiXV.A.A.A.",
"K.A.A.A.A.A.iXiXiXZ.S M.rXbXbXbXbXrXm.Q sXAXVXkXNXCXsX!.N . . v.tXeXfXbXbXnX6X/ D._.iXiXiXiXk.A.A.A.",
"K.A.A.A.A.A.iXiXiXD.L %XnXbXbXbXbXwXE.S.xXVXkXJ.).VXZXMX/.N + b.rXnXnXbXnXbXrX@X5.x._.iXiXiXx.A.A.A.",
"K.A.A.A._ A.iXiXuXP.z.6XnXbXbXbXrXW.x.pXVXVX;X~ T.NXZXBX9X6.> >.5XmXjXeX6XnXnXnX@X:.) iXiXiXA.A.A.A.",
"K.A.A.A.A._ uX_ L >.+XmXbXbXbXbXeXn.c.xXAXVX%X%.U.NXZXvX8Xq.: y l.@XE.Y F / W.rX7X3.Q uXiXiX_ A.A.A.",
"!.~.~.~.~.R.! I &.9.[.9XnXbXbXbX7Xc.x.MXAXBX=XP U.NXVXjX4XN.p o , x c y H 1 P B.$X8.P ) L.!.~.~.~.~.",
"~.iXiX`.Z.W ; p a K 7.$X0XbXbXbXqXv.) MXAXCX=XP U.NXVXgX#XM.y     . o c b.1.>.:.&.J x i F k.iXiXiXiX",
"~.iXiX(.E R 2 2 N V L l.$X8X0X9X4X2.) MXAXVX=XP U.NXBX-X}.7.K s J j p c @X=XB.C 2 V N > 3 _ iXiXiXiX",
"'.iXiXiXuXuX` ` ` ` ^ L 1.6.7.9.,.K Q xXVXlX#XP L.MXvX-X}.b.[.%X;X[.<.3 v.E.E.G S _ W n m R yXiXiXiX",
").iXiXiXiXiXA.A.A.A.A.( M 3 3 3 3 ; D sXBXgX}.K U.cXvX8X#X9XBXAXAXkXP.X * v / 2 F A.A.V.( b ^.iXiXiX",
"~.iXiXiXiXiXA.A.A.A.A.D.`.).).).).Q ! fXmX8X}.:.E.hXjX9XgXBXZXZXBXzX7.; 3 Y 3 X S A.A.y._ ) uXiXiXiX",
"K._ x.A.A.A.iXiXiXiXiXuXe.A.k.A.k.Q ! 6X8X#X[.~ J.sXBXlXVXVXCXlX-X X>.3 D , . . _ iXiXiXiXiXA.A.A.A.",
"K.A.V.A.A.A.iXiXiXiXiXuXA.A.A.A._ Q ! fX0X#X$X0.<.J.aXhXCXcXjX@X2.F A Q ( z A R ).iXiXiXiXiX_ A.A.A.",
"K.A.A.A.A.A.iXiXiXiXiXuXA.A.A.A._ R R iXvX8X4X}.&.V ! P.&X%X@X2.3.G.V._ ` R ` A.iXiXiXiXiXiXA.A.A.A.",
"K.A.A.A.A.A.iXiXiXiXiXuXA.A.A.A.e.R n J.kX9X4X|.J 3 F W P P K 3.~.iX!._ A._ x.A.iXiXiXiXiXiXA.A.A.A.",
"K.k.A.A._ A.iXiXiXiXiXuXA._ x.A.A.` S D dXkX9X|.J B _ ) B ! Q ~.iXiX!.A.A.A.V.A.iXiXiXiXiXiX_ A.A.A.",
"K.D.D.D.D.D.uXuXuXuXuX_.D.D.D.D.D.~.J.S iXMXzX XJ S D.D.S.uXpXpXuXuX!.D.D.D.D.D.uXuXuXuXuXuXD.D.D.D.",
"'.iXiXiXiXiXA._ x.A.A.S.iXiXiXiXiX!.Q F K.!.Y.1.I D.iXiXuXx.A.A.A.A.^.iXiXiXiXiXA.A.A.A.A.A.iXiXiXiX",
"~.iXiXiXiXiXA.A.x.A.A.S.iXiXuX:XuX!._ Q S N , 1 D.uXiXiXuXA.A.A.A.A.!.iXiXiXiXiXA.A.A.A.A.A.iXiXiXiX",
"~.iXiXiXiXiXA.A.A.A.y.S.iXiX( m A.J.^ Q b.2.y _ _.iXiXiXuXA.A.x.A.A.!.iXiXiXiXiXA.A.A.A.A.A.iXiXiXiX",
"~.iXiXiXiXiXA.A.A.A.A.S.iXiXQ.m , g T 2XqXN.i L.iXiXiXiXuXA.A.A.A.A.!.iXiXiXiXiXA.A.A.A.A.A.iXiXiXiX",
").iXiXiXiXiXA.A._ A.A.S.iXiXiXK.V z v.3X3X0.2 L.iXiXiXiXuXA.A._ A._ !.iXiXiXiXiXA.A.A.A.A.A.iXiXiXiX",
"!.!.!.!.!.!.!.!.!.!.!.!.!.!.!.!.S , Y T T I ( G.!.!.!.!.!.!.!.!.!.!.!.!.!.!.!.!.!.!.!.!.!.!.!.!.!.!."
};
