/* XPM */
static const char *NjZjZGQyMDM1NWEwOF9kb3dubG9hZA__[] = {
/* columns rows colors chars-per-pixel */
"50 50 207 2 ",
"   c #060606",
".  c #0D0D0D",
"X  c #090807",
"o  c #160E0D",
"O  c #0E100F",
"+  c #14120E",
"@  c #180F10",
"#  c #141413",
"$  c #1E1312",
"%  c #1D1C14",
"&  c #1C1C1B",
"*  c #191718",
"=  c #250B0B",
"-  c #2B0E06",
";  c #23170F",
":  c #3A1809",
">  c #231C1B",
",  c #281E1A",
"<  c #291813",
"1  c #321C13",
"2  c #381A18",
"3  c #3D240E",
"4  c #23221E",
"5  c #2C231D",
"6  c #392313",
"7  c #36221B",
"8  c #333311",
"9  c #232222",
"0  c #2B2522",
"q  c #2C2C2C",
"w  c #2C2827",
"e  c #322323",
"r  c #3B2825",
"t  c #36312D",
"y  c #353535",
"u  c #3C3B3C",
"i  c #3C3435",
"p  c #273129",
"a  c #4B0C0B",
"s  c #481616",
"d  c #551B10",
"f  c #461C04",
"g  c #630D0C",
"h  c #6C1406",
"j  c #472B0F",
"k  c #4A2A0B",
"l  c #4A240C",
"z  c #5A2D03",
"x  c #512D0B",
"c  c #592705",
"v  c #57310C",
"b  c #5E3209",
"n  c #452A12",
"m  c #462717",
"M  c #552B12",
"N  c #5E3C19",
"B  c #4E3419",
"V  c #652C06",
"C  c #623204",
"Z  c #6F3402",
"A  c #63340A",
"S  c #6E380A",
"D  c #743902",
"F  c #673817",
"G  c #773C16",
"H  c #4A352D",
"J  c #6E3B20",
"K  c #4F500C",
"L  c #424019",
"P  c #565C1C",
"I  c #724501",
"U  c #6F6E1E",
"Y  c #5C452D",
"T  c #534D3F",
"R  c #4D5031",
"E  c #634125",
"W  c #604937",
"Q  c #376549",
"!  c #444443",
"~  c #4B4B4B",
"^  c #464648",
"/  c #595047",
"(  c #555555",
")  c #5C5C5C",
"_  c #595758",
"`  c #5B4949",
"'  c #655E5D",
"]  c #656565",
"[  c #6A6A6A",
"{  c #6A6965",
"}  c #737373",
"|  c #7D7D7D",
" . c #853302",
".. c #8F3501",
"X. c #823D02",
"o. c #933801",
"O. c #8B4702",
"+. c #895700",
"@. c #826100",
"#. c #9A7D3B",
"$. c #907F63",
"%. c #817575",
"&. c #907651",
"*. c #688A2B",
"=. c #7E8744",
"-. c #549A68",
";. c #868906",
":. c #A6AA0D",
">. c #A19328",
",. c #C0B13C",
"<. c #D1B432",
"1. c #BAC123",
"2. c #BDD326",
"3. c #C4C311",
"4. c #DBDA0E",
"5. c #F8DA0B",
"6. c #E6CA13",
"7. c #F3D410",
"8. c #DCEE04",
"9. c #D4E314",
"0. c #F9EA19",
"q. c #F1EF0A",
"w. c #C0DA21",
"e. c #FAC92D",
"r. c #FAD427",
"t. c #EDC331",
"y. c #FCD133",
"u. c #FBDB35",
"i. c #F7C937",
"p. c #82B043",
"a. c #98A45A",
"s. c #A4B940",
"d. c #AAB050",
"f. c #B8A757",
"g. c #83817E",
"h. c #8E8073",
"j. c #9E8C70",
"k. c #968875",
"l. c #9C977A",
"z. c #9D8966",
"x. c #B38E74",
"c. c #B79576",
"v. c #A09778",
"b. c #84A37A",
"n. c #BEA06E",
"m. c #B49253",
"M. c #D09C49",
"N. c #CC9C5C",
"B. c #C2955E",
"V. c #D59C59",
"C. c #C29748",
"Z. c #E59B52",
"A. c #D5AB4A",
"S. c #D0B449",
"D. c #D5A75C",
"F. c #D8B154",
"G. c #F4AE4F",
"H. c #EBBA48",
"J. c #E2AF57",
"K. c #EABC5A",
"L. c #FCBE5B",
"P. c #EFA854",
"I. c #C89868",
"U. c #D79C66",
"Y. c #E89D62",
"T. c #C1A86A",
"R. c #DAAE67",
"E. c #DBBF6C",
"W. c #C3A779",
"Q. c #C7BC6C",
"!. c #DCC948",
"~. c #F8D243",
"^. c #EEC35A",
"/. c #F2CC53",
"(. c #7F8180",
"). c #818181",
"_. c #8C8483",
"`. c #8D8A85",
"'. c #8C8C8C",
"]. c #908E8F",
"[. c #949494",
"{. c #9C9C9C",
"}. c #AE9382",
"|. c #AD9B8A",
" X c #B8A68D",
".X c #A7A19B",
"XX c #B5A89A",
"oX c #9FA1A0",
"OX c #A4A4A4",
"+X c #ACACAC",
"@X c #AAA7A4",
"#X c #B0ADA8",
"$X c #B4B0A8",
"%X c #B3B3B3",
"&X c #BBBBBB",
"*X c #BEBBB4",
"=X c #CCA681",
"-X c #C3A787",
";X c #CBB288",
":X c #C8AD90",
">X c #C6BAAE",
",X c #C3B9B0",
"<X c #CBC2B9",
"1X c #BFBFC1",
"2X c #C3C3C3",
"3X c #CBC9C2",
"4X c #CCCCCC",
/* pixels */
"OX'.'.[.+X&X&X%X{.'.'.{.%X&X&X+X[.'.].oX&X*X-XN.V.U.}.OX+X+X%XOX'.'.[.+X&X&X%X{.'.'.{.%X&X&X+X[.'.'.",
"OX).)._.+X4X4X2X{.).).[.&X4X4X%X'.).).{.2X3X;XM.Z.Y.x.@X2X2X2X{.).).'.%X4X4X&X[.).).[.&X4X4X+X'.).).",
"OX).)._.+X4X4X2X{.).).[.&X4X4X%X'.).).{.2X3X;XV.P.G.I. X<X4X2X{.).).'.%X4X4X&X[.).).[.&X4X4X+X'.).).",
"OX{.{.{.+X%X%X+XOX{.{.OX+X%X%X+XoX{.{.OX+X$X-XU.H.i.F.W.XX%X+XOX{.{.{.+X%X%X+XOX{.{.OX+X%X%X+X{.{.{.",
"+X2X2X&XOX'.'.[.%X2X2X%X[.'.'.{.&X2X2X+X'.`.c.Y.i.0.!.T.l.`.'.+X2X2X&X{.'.'.[.%X2X2X%X[.'.'.{.&X2X2X",
"+X4X4X2X{.).).'.%X4X4X&X[.).).[.&X4X4X+X`.k.I.P.y.0.!.Q.l.)._.+X4X4X&X[.).).[.&X4X4X%X'.).).{.2X4X4X",
"+X4X4X2X{.).).'.%X4X4X&X[.).).[.&X4X4X$Xj.m.D.L.e.5.~.E.v.| _.+X4X4X2X{.).).[.&X4X4X%X'.).| {.2X4X4X",
"OX+X+X+XOXOXOXOXOX+X+X+XOXOXOXOX+X+X#XXXn.A.H.~.r.5.y.^.W..X.XOX+X+X+XOXOXOXOX+X+X+XOXOXOXOXOX+X+X+X",
"OX)._.'.+X4X4X&X{.).).[.%X4X4X%X[._.k.c.R.K.u.0.q.8.7.e.R.:X,X{.).).'.%X4X4X&X[.).).{.&X4X4X+X'.).).",
"OX).)._.+X4X4X2X{.).).[.&X4X4X%X'.g.j.B.J./.u.q.9.w.4.6.A.=X>X{.| ).'.%X4X4X&X[.).).[.&X4X4X+X'.).).",
"OX).| _.+X4X4X2X{.).).[.&X4X4X%X'.g.z.C.J./.y.7.,.a.2.9.S.=X>X{.).).'.%X4X4X&X[.).).[.1X4X4X%X`.).).",
"OXOXOXOXOXOXOXOXOXOXOXOXOXOXOXOXOXOX XI.D.K.t.6.d.b.s.1.f.}..XOXOXOX+XOXOXOXOXOX@X@XOXOXOXOXOXOXOXOX",
"+X4X4X2X{.).).'.%X4X4X&X[.).).[.1X4X3X$Xc.N.<.3.p.-.=.#.z.g.`.+X4X4X1X[.).).[.&X4X4X%X'.).).{.2X4X4X",
"+X4X4X2X{.).).'.%X4X4X&X[.).).{.&X4X4X+Xh.&.>.:.*.Q R Y / ' | +X4X4X2X{.).).[.&X4X4X%X'.).).{.2X4X4X",
"@X2X2X2X{._._.[.%X2X2X&X[._._.{.&X2X&XOX{ T U ;.P p 4 > 4 y [ OX&X2X&X{._._.[.&X2X2X%X[._._.{.2X2X2X",
"OXOXOXOXOX+X+X+XOXOXOXOX+X+X+XOX].} ] ) ^ t L K 8 * O . . & ! _ ) } [.@X+X+X+XOXOXOXOX+X+X+X+XOXOXOX",
"OX).)._.+X4X4X2X{.).).[.&X4X4X%X[ y 9 9 9 & % % + X     X . # # * u | %X4X4X&X[.).).[.2X4X4X+X'.).).",
"OX).)._.+X4X4X&X{.).| [.&X4X4X%X[ q & & & & & * # .     . # . . . y } %X4X4X&X[.).).[.&X4X4X+X'.).).",
"OX'.'.'.+X2X2X&X{.'.'.[.%X2X2X+X} ! w 4 4 4 , < < ; o . & & & & 9 ^ ).%X2X2X%X{.'.'.{.%X2X2X+X[.'.'.",
"OX%X%X%XOX{.{.{.+X%X%X+XOX{.{.OX{._._ q 7 j k k c c 1 & 9 9 & y ] '.OXOX{.{.OX+X%X%X+X{.{.{.OX%X%X%X",
"@X4X4X2X{.).).'.%X4X4X&X[.).).[.&X&Xg.t 6 v A Z  . .M 5 0 9 & ^ {.2X&X{.).).[.&X4X4X%X'.| ).{.2X4X4X",
"@X4X4X2X{.).).'.%X4X4X&X[.).).[.&X2X_.H 7 H G  .o...V j 5 & * ^ OX4X2X{.).).[.&X4X4X%X'.).).{.2X4X4X",
"OX&X&X&XOX[.[.[.+X&X&X%X{.[.[.{.%X%X%.r 7 H J o.o.O.D z 2 $ + u [.&X%X{.[.[.{.%X&X&X+X{.[.[.OX%X&X&X",
"OX[.[.[.+X&X&X%XOX[.[.{.+X&X&X+X{.'.' , > t F ..+.@.I z : = o y } [.{.+X&X&X+X{.[.[.{.%X%X&X+X{.[.[.",
"OX(.)._.+X4X4X2X{.).).[.&X4X4X%X'.| ( & & 0 M  .O.+.I z : = @ y [ ).'.%X4X4X&X[.).).{.&X4X4X+X'.).).",
"OX).)._.+X4X4X2X{.).).[.&X4X4X%X'.| ( 9 & 0 j Z X.O.D z 6 $ # y [ ).'.%X4X4X&X[.).).[.&X4X4X+X'.).).",
"OX[.[.{.+X%X%X%XOX[.[.{.+X%X%X+X{.[.] w & 0 n C G G S z : $ # y | [.{.+X%X%X+X{.[.[.OX%X%X%X+X{.[.[.",
"@X&X&X&XOX'.'.[.+X&X&X%X{.'.'.{.%X&X).u 9 5 n A E W F c : = $ ^ {.&X%X{.'.[.{.%X&X&X+X[.'.'.OX&X&X&X",
"+X4X4X2X{.).).'.%X4X4X&X[.).).[.&X2XOX[ i 1 l C N Y B 3 - ; i } %X4X&X{.).).[.&X4X4X%X'.).).{.2X4X4X",
"+X4X4X2X{.).).'.%X4X4X&X[.).).[.&X4X2X{.` : f z C b n < @ 4 ) OX2X4X2X{.).).[.&X4X4X%X'.).| {.2X4X4X",
"OX%X%X+XOX{.{.{.+X%X%X+XOX{.{.OX+X%X%XOX' 1 1 n v C x 3 ; y | @X%X+X+XOX{.{.OX+X%X%X+X{.{.{.OX+X%X%X",
"OX'.'.'.+X2X2X&X{.'.'.[.%X2X2X%X[.'.'.[.} w > 5 k C b k < u [.OX'.'.[.%X2X2X%X[.'.'.{.&X2X2X+X'.'.'.",
"OX).)._.+X4X4X2X{.).| [.&X4X4X%X'.).).[.} q & 5 j C x 6 % u [.{.).| '.%X4X4X&X[.).).[.&X4X4X+X'.).).",
"OX).)._.+X4X4X2X{.).| [.&X4X4X%X'.(.(.[.} w & 5 l V m 9 # u [.{.).).'.%X4X4X&X[.).).[.&X4X4X+X'.).(.",
"OXOXOXOXOX+X+X+XOXOXOXOX+X+X+XOXOXOXOX{.[ 9 & 0 d h m 9 & y ).OXOXOXOX+X+X+X+XOXOXOXOX+X+X+X+XOXOXOX",
"+X4X4X2XoX).).'.%X4X4X&X[.).).{.&X4X4X+X_ 9 9 e s g 2 9 & q [ +X4X4X&X{.).).[.%X4X4X%X'.)._.{.2X4X4X",
"+X4X4X2X{.).).'.%X4X4X&X[.).).[.&X4X4X+X_ 9 9 9 e 2 0 & # w [ +X4X4X2X{.).).[.&X4X4X%X'.).).{.2X4X4X",
"@X4X4X2X{.).).'.%X4X4X&X[.).).[.&X4X4X+X( 4 & 9 e 2 , & . 9 ] +X4X4X2X{.).).[.&X4X4X%X'.).).{.2X4X4X",
"OXOXOXOXOXOX@XOXOXOXOXOXOXOXOXOXOXOXOX{.] 9 & , s a < * . q | OXOXOXOXOXOXOXOXOXOXOXOXOXOXOXOXOXOXOX",
"OX(.| _.+X4X4X2X{.).| [.&X4X4X%X'.).).[.'.( y > : a = & y [ OX{.).).'.%X4X4X&X[.).).[.&X4X4X+X'.).).",
"OX(.)._.+X4X4X2X{.).(.[.&X4X4X%X'.).).{.%XOX_ * $ > o 9 | %X&X{.).).'.%X4X4X&X[.).).[.&X4X4X+X'.| (.",
"OX_._.'.+X2X2X&X{._._.[.%X2X4X%X[._._.{.2X&X] # # & . 9 '.4X2X{._._.[.%X2X2X&X[._._.{.&X2X4X+X'._._.",
"OX+X+X+XOX{.{.OX+X+X+X+XOX{.{.OX+X+X+X+XOX[.( . # * X 9 } {.OXOX+X+X+XOXOX{.OX+X+X+X+XOXoX{.OX+X+X+X",
"+X4X4X2X{.).).'.%X4X4X&X[.).).[.&X4X4X+X'.} ^ * # * X & _ )._.+X4X4X2X{.).).[.&X4X4X%X'.).).{.2X4X4X",
"+X4X4X2X{.| | '.%X4X4X&X[.).).[.&X4X4X+X'.| ^ & * * . & _ )._.+X4X4X1X{.).).[.&X4X4X%X'.).).{.2X4X4X",
"OX2X2X&XOX'.'.[.%X2X2X%X{.'.'.{.%X2X2X+X[.).~ & * * # 9 ] '.'.+X2X2X&X{.'.'.[.%X2X2X%X[.'.'.OX&X2X2X",
"OX{.{.{.+X%X%X+XOX{.{.{.+X%X%X+X{.{.{.OX%X+X} y & * 9 ! '.%X%XOX{.{.{.+X%X%X+XOX{.{.OX+X%X%X+X{.{.{.",
"OX).)._.+X4X4X2X{.).).[.&X4X4X%X'.| ).{.2X2X@X[ y & u | %X4X2X{.).).'.%X4X4X&X[.).).[.&X4X4X+X'.).).",
"OX| )._.+X4X4X2X{.).(.[.&X4X4X%X'.).).{.2X4X2X{.~ y ) OX4X4X2X{.).(.'.%X4X4X&X[.| ).[.&X4X4X+X'.).).",
"OX[.[.[.+X&X&X%X{.[.].{.%X&X&X+X{.[.[.OX%X&X&XOX| } _.OX&X&X&XOX[.[.[.+X&X&X%X{.[.[.{.%X&X&X+X[.[.[."
};
